<svg xmlns="http://www.w3.org/2000/svg" viewBox="0 0 2130 2860">
<style>
.sn{font-family:Inter;font-size:11px;fill:#374151}
.sh{font-family:Inter;font-size:11px;fill:#9CA3AF}
.gl{font-family:Inter;font-size:14px;font-weight:600;fill:#6B7280}
.st{font-family:Inter;font-size:20px;font-weight:600;fill:#374151}
.desc{font-family:Inter;font-size:11px;font-weight:400;fill:#9CA3AF}
.sl{font-family:Inter;font-size:11px;font-weight:400;fill:#9CA3AF}
</style>
<defs>
<pattern id="checker" width="10" height="10" patternUnits="userSpaceOnUse"><rect width="10" height="10" fill="#fff"/><rect width="5" height="5" fill="#ccc"/><rect x="5" y="5" width="5" height="5" fill="#ccc"/></pattern>
<filter id="shadow-popover" x="-20%" y="-20%" width="140%" height="160%"><feDropShadow dx="0" dy="4" stdDeviation="5" flood-color="rgb(0,0,0)" flood-opacity="0.1"/></filter>
<filter id="shadow-dropdown" x="-20%" y="-20%" width="140%" height="160%"><feDropShadow dx="0" dy="4" stdDeviation="10" flood-color="rgb(0,0,0)" flood-opacity="0.15"/></filter>
<filter id="shadow-modal" x="-20%" y="-20%" width="140%" height="160%"><feDropShadow dx="0" dy="4" stdDeviation="12" flood-color="rgb(0,0,0)" flood-opacity="0.15"/></filter>
<filter id="shadow-elevated" x="-20%" y="-20%" width="140%" height="180%"><feDropShadow dx="0" dy="8" stdDeviation="16" flood-color="rgb(0,0,0)" flood-opacity="0.2"/></filter>
<filter id="shadow-auth" x="-30%" y="-30%" width="160%" height="200%"><feDropShadow dx="0" dy="18" stdDeviation="25" flood-color="rgb(15,23,42)" flood-opacity="0.2"/></filter>
<filter id="shadow-card-hover" x="-20%" y="-20%" width="140%" height="160%"><feDropShadow dx="0" dy="4" stdDeviation="8" flood-color="rgb(0,0,0)" flood-opacity="0.08"/></filter>
</defs>

<!-- ============================================================ -->
<!-- STEP 1 — Color Palette                                       -->
<!-- ============================================================ -->
<g id="step-01-color-palette" transform="translate(100,100)">
<text class="st" y="20">Step 1 — Color Palette</text>

<!-- Brand -->
<text class="gl" y="58">Brand</text>
<g transform="translate(0,66)"><rect width="100" height="50" rx="6" fill="#4185DE" stroke="#D1D5DB" stroke-width="1"/><text y="64" class="sn">action</text><text y="78" class="sh">#4185DE</text></g>

<!-- Text -->
<text class="gl" y="190">Text</text>
<g transform="translate(0,198)"><rect width="100" height="50" rx="6" fill="#374151" stroke="#D1D5DB" stroke-width="1"/><text y="64" class="sn">text-primary</text><text y="78" class="sh">#374151</text></g>
<g transform="translate(116,198)"><rect width="100" height="50" rx="6" fill="#6B7280" stroke="#D1D5DB" stroke-width="1"/><text y="64" class="sn">text-secondary</text><text y="78" class="sh">#6B7280</text></g>
<g transform="translate(232,198)"><rect width="100" height="50" rx="6" fill="#9CA3AF" stroke="#D1D5DB" stroke-width="1"/><text y="64" class="sn">text-tertiary</text><text y="78" class="sh">#9CA3AF</text></g>
<g transform="translate(348,198)"><rect width="100" height="50" rx="6" fill="#7f1c1d" stroke="#D1D5DB" stroke-width="1"/><text y="64" class="sn">text-error</text><text y="78" class="sh">#7f1c1d</text></g>
<g transform="translate(464,198)"><rect width="100" height="50" rx="6" fill="#dc2626" stroke="#D1D5DB" stroke-width="1"/><text y="64" class="sn">text-danger</text><text y="78" class="sh">#dc2626</text></g>
<g transform="translate(580,198)"><rect width="100" height="50" rx="6" fill="#059669" stroke="#D1D5DB" stroke-width="1"/><text y="64" class="sn">text-success</text><text y="78" class="sh">#059669</text></g>
<g transform="translate(696,198)"><rect width="100" height="50" rx="6" fill="#ffffff" stroke="#D1D5DB" stroke-width="1"/><text y="64" class="sn">text-inverse</text><text y="78" class="sh">#ffffff</text></g>
<g transform="translate(812,198)"><rect width="100" height="50" rx="6" fill="#D1D5DB" stroke="#D1D5DB" stroke-width="1"/><text y="64" class="sn">text-prefill</text><text y="78" class="sh">#D1D5DB</text></g>

<!-- Backgrounds -->
<text class="gl" y="322">Backgrounds</text>
<g transform="translate(0,330)"><rect width="100" height="50" rx="6" fill="#f8fafc" stroke="#D1D5DB" stroke-width="1"/><text y="64" class="sn">app-background</text><text y="78" class="sh">#f8fafc</text></g>
<g transform="translate(116,330)"><rect width="100" height="50" rx="6" fill="#FFFFFF" stroke="#D1D5DB" stroke-width="1"/><text y="64" class="sn">bg-primary</text><text y="78" class="sh">#FFFFFF</text></g>
<g transform="translate(232,330)"><rect width="100" height="50" rx="6" fill="#F3F4F6" stroke="#D1D5DB" stroke-width="1"/><text y="64" class="sn">bg-secondary</text><text y="78" class="sh">#F3F4F6</text></g>
<g transform="translate(348,330)"><rect width="100" height="50" rx="6" fill="#E5E7EB" stroke="#D1D5DB" stroke-width="1"/><text y="64" class="sn">bg-hover</text><text y="78" class="sh">#E5E7EB</text></g>
<g transform="translate(464,330)"><rect width="100" height="50" rx="6" fill="#EDF3FC" stroke="#D1D5DB" stroke-width="1"/><text y="64" class="sn">bg-accent-light</text><text y="78" class="sh">#EDF3FC</text></g>

<!-- Borders -->
<text class="gl" y="454">Borders</text>
<g transform="translate(0,462)"><rect width="100" height="50" rx="6" fill="#E3E8EF" stroke="#D1D5DB" stroke-width="1"/><text y="64" class="sn">border-light</text><text y="78" class="sh">#E3E8EF</text></g>
<g transform="translate(116,462)"><rect width="100" height="50" rx="6" fill="#dddddd" stroke="#D1D5DB" stroke-width="1"/><text y="64" class="sn">border-medium</text><text y="78" class="sh">#dddddd</text></g>

<!-- Status -->
<text class="gl" y="586">Status</text>
<g transform="translate(0,594)"><rect width="100" height="50" rx="6" fill="#ef4444" stroke="#D1D5DB" stroke-width="1"/><text y="64" class="sn">danger</text><text y="78" class="sh">#ef4444</text></g>
<g transform="translate(116,594)"><rect width="100" height="50" rx="6" fill="#FEE2E2" stroke="#D1D5DB" stroke-width="1"/><text y="64" class="sn">danger-light</text><text y="78" class="sh">#FEE2E2</text></g>
<g transform="translate(232,594)"><rect width="100" height="50" rx="6" fill="#d97706" stroke="#D1D5DB" stroke-width="1"/><text y="64" class="sn">warning</text><text y="78" class="sh">#d97706</text></g>
<g transform="translate(348,594)"><rect width="100" height="50" rx="6" fill="#fef3c7" stroke="#D1D5DB" stroke-width="1"/><text y="64" class="sn">warning-light</text><text y="78" class="sh">#fef3c7</text></g>
<g transform="translate(464,594)"><rect width="100" height="50" rx="6" fill="#16a34a" stroke="#D1D5DB" stroke-width="1"/><text y="64" class="sn">success</text><text y="78" class="sh">#16a34a</text></g>
<g transform="translate(580,594)"><rect width="100" height="50" rx="6" fill="#dcfce7" stroke="#D1D5DB" stroke-width="1"/><text y="64" class="sn">success-light</text><text y="78" class="sh">#dcfce7</text></g>

<!-- Semantic -->
<text class="gl" y="718">Semantic</text>
<g transform="translate(0,726)"><rect width="100" height="50" rx="6" fill="#b45309" stroke="#D1D5DB" stroke-width="1"/><text y="64" class="sn">project</text><text y="78" class="sh">#b45309</text></g>
<g transform="translate(116,726)"><rect width="100" height="50" rx="6" fill="#ea580c" stroke="#D1D5DB" stroke-width="1"/><text y="64" class="sn">review</text><text y="78" class="sh">#ea580c</text></g>
<g transform="translate(232,726)"><rect width="100" height="50" rx="6" fill="#2563eb" stroke="#D1D5DB" stroke-width="1"/><text y="64" class="sn">file-blue</text><text y="78" class="sh">#2563eb</text></g>
<g transform="translate(348,726)"><rect width="100" height="50" rx="6" fill="#fde68a" stroke="#D1D5DB" stroke-width="1"/><text y="64" class="sn">highlight-amber</text><text y="78" class="sh">#fde68a</text></g>
<g transform="translate(464,726)"><rect width="100" height="50" rx="6" fill="#fef08a" stroke="#D1D5DB" stroke-width="1"/><text y="64" class="sn">highlight-yellow</text><text y="78" class="sh">#fef08a</text></g>
<g transform="translate(580,726)"><rect width="100" height="50" rx="6" fill="#777777" stroke="#D1D5DB" stroke-width="1"/><text y="64" class="sn">avatar-fallback</text><text y="78" class="sh">#777777</text></g>

<!-- Dark Theme -->
<text class="gl" y="850">Dark Theme</text>
<g transform="translate(0,858)"><rect width="100" height="50" rx="6" fill="#1E293B" stroke="#D1D5DB" stroke-width="1"/><text y="64" class="sn">bg-dark</text><text y="78" class="sh">#1E293B</text></g>
<g transform="translate(116,858)"><rect width="100" height="50" rx="6" fill="#283548" stroke="#D1D5DB" stroke-width="1"/><text y="64" class="sn">bg-dark-card</text><text y="78" class="sh">#283548</text></g>
<g transform="translate(232,858)"><rect width="100" height="50" rx="6" fill="#F1F5F9" stroke="#D1D5DB" stroke-width="1"/><text y="64" class="sn">text-on-dark</text><text y="78" class="sh">#F1F5F9</text></g>
<g transform="translate(348,858)"><rect width="100" height="50" rx="6" fill="#94A3B8" stroke="#D1D5DB" stroke-width="1"/><text y="64" class="sn">text-on-dark-sec</text><text y="78" class="sh">#94A3B8</text></g>
<g transform="translate(464,858)"><rect width="100" height="50" rx="6" fill="url(#checker)"/><rect width="100" height="50" rx="6" fill="rgb(148,163,184)" fill-opacity="0.15" stroke="#D1D5DB" stroke-width="1"/><text y="64" class="sn">border-dark</text><text y="78" class="sh">rgba(148,163,184,0.15)</text></g>

<!-- Overlays -->
<text class="gl" y="982">Overlays</text>
<g transform="translate(0,990)"><rect width="100" height="50" rx="6" fill="url(#checker)"/><rect width="100" height="50" rx="6" fill="rgb(0,0,0)" fill-opacity="0.5" stroke="#D1D5DB" stroke-width="1"/><text y="64" class="sn">overlay</text><text y="78" class="sh">rgba(0,0,0,0.5)</text></g>
<g transform="translate(116,990)"><rect width="100" height="50" rx="6" fill="url(#checker)"/><rect width="100" height="50" rx="6" fill="rgb(0,0,0)" fill-opacity="0.4" stroke="#D1D5DB" stroke-width="1"/><text y="64" class="sn">overlay-light</text><text y="78" class="sh">rgba(0,0,0,0.4)</text></g>
<g transform="translate(232,990)"><rect width="100" height="50" rx="6" fill="url(#checker)"/><rect width="100" height="50" rx="6" fill="rgb(0,0,0)" fill-opacity="0.6" stroke="#D1D5DB" stroke-width="1"/><text y="64" class="sn">overlay-heavy</text><text y="78" class="sh">rgba(0,0,0,0.6)</text></g>
<g transform="translate(348,990)"><rect width="100" height="50" rx="6" fill="url(#checker)"/><rect width="100" height="50" rx="6" fill="rgb(0,0,0)" fill-opacity="0.9" stroke="#D1D5DB" stroke-width="1"/><text y="64" class="sn">overlay-opaque</text><text y="78" class="sh">rgba(0,0,0,0.9)</text></g>
<g transform="translate(464,990)"><rect width="100" height="50" rx="6" fill="url(#checker)"/><rect width="100" height="50" rx="6" fill="rgb(255,255,255)" fill-opacity="0.7" stroke="#D1D5DB" stroke-width="1"/><text y="64" class="sn">overlay-white</text><text y="78" class="sh">rgba(255,255,255,0.7)</text></g>
<g transform="translate(580,990)"><rect width="100" height="50" rx="6" fill="url(#checker)"/><rect width="100" height="50" rx="6" fill="rgb(255,255,255)" fill-opacity="0.2" stroke="#D1D5DB" stroke-width="1"/><text y="64" class="sn">overlay-white-sub</text><text y="78" class="sh">rgba(255,255,255,0.2)</text></g>
<g transform="translate(696,990)"><rect width="100" height="50" rx="6" fill="url(#checker)"/><rect width="100" height="50" rx="6" fill="rgb(255,255,255)" fill-opacity="0.4" stroke="#D1D5DB" stroke-width="1"/><text y="64" class="sn">overlay-white-mut</text><text y="78" class="sh">rgba(255,255,255,0.4)</text></g>
<g transform="translate(812,990)"><rect width="100" height="50" rx="6" fill="url(#checker)"/><rect width="100" height="50" rx="6" fill="rgb(255,255,255)" fill-opacity="0.08" stroke="#D1D5DB" stroke-width="1"/><text y="64" class="sn">on-dark-glass</text><text y="78" class="sh">rgba(255,255,255,0.08)</text></g>
<!-- Overlays row 2 -->
<g transform="translate(0,1084)"><rect width="100" height="50" rx="6" fill="url(#checker)"/><rect width="100" height="50" rx="6" fill="rgb(255,255,255)" fill-opacity="0.85" stroke="#D1D5DB" stroke-width="1"/><text y="64" class="sn">on-dark-muted</text><text y="78" class="sh">rgba(255,255,255,0.85)</text></g>
<g transform="translate(116,1084)"><rect width="100" height="50" rx="6" fill="url(#checker)"/><rect width="100" height="50" rx="6" fill="rgb(247,249,251)" fill-opacity="0.5" stroke="#D1D5DB" stroke-width="1"/><text y="64" class="sn">popup-backdrop</text><text y="78" class="sh">rgba(247,249,251,0.5)</text></g>

<!-- Focus / Action -->
<text class="gl" y="1208">Focus / Action</text>
<g transform="translate(0,1216)"><rect width="100" height="50" rx="6" fill="url(#checker)"/><rect width="100" height="50" rx="6" fill="rgb(37,99,235)" fill-opacity="0.2" stroke="#D1D5DB" stroke-width="1"/><text y="64" class="sn">focus-ring</text><text y="78" class="sh">rgba(37,99,235,0.2)</text></g>
<g transform="translate(116,1216)"><rect width="100" height="50" rx="6" fill="url(#checker)"/><rect width="100" height="50" rx="6" fill="rgb(239,68,68)" fill-opacity="0.2" stroke="#D1D5DB" stroke-width="1"/><text y="64" class="sn">danger-ring</text><text y="78" class="sh">rgba(239,68,68,0.2)</text></g>
<g transform="translate(232,1216)"><rect width="100" height="50" rx="6" fill="url(#checker)"/><rect width="100" height="50" rx="6" fill="rgb(37,99,235)" fill-opacity="0.1" stroke="#D1D5DB" stroke-width="1"/><text y="64" class="sn">action-subtle</text><text y="78" class="sh">rgba(37,99,235,0.1)</text></g>
<g transform="translate(348,1216)"><rect width="100" height="50" rx="6" fill="url(#checker)"/><rect width="100" height="50" rx="6" fill="rgb(65,133,222)" fill-opacity="0.08" stroke="#D1D5DB" stroke-width="1"/><text y="64" class="sn">action-bg-subtle</text><text y="78" class="sh">rgba(65,133,222,0.08)</text></g>
<g transform="translate(464,1216)"><rect width="100" height="50" rx="6" fill="url(#checker)"/><rect width="100" height="50" rx="6" fill="rgb(65,133,222)" fill-opacity="0.1" stroke="#D1D5DB" stroke-width="1"/><text y="64" class="sn">action-bg-light</text><text y="78" class="sh">rgba(65,133,222,0.1)</text></g>
<g transform="translate(580,1216)"><rect width="100" height="50" rx="6" fill="url(#checker)"/><rect width="100" height="50" rx="6" fill="rgb(65,133,222)" fill-opacity="0.12" stroke="#D1D5DB" stroke-width="1"/><text y="64" class="sn">action-shadow</text><text y="78" class="sh">rgba(65,133,222,0.12)</text></g>
<g transform="translate(696,1216)"><rect width="100" height="50" rx="6" fill="url(#checker)"/><rect width="100" height="50" rx="6" fill="rgb(65,133,222)" fill-opacity="0.15" stroke="#D1D5DB" stroke-width="1"/><text y="64" class="sn">action-shadow-md</text><text y="78" class="sh">rgba(65,133,222,0.15)</text></g>
<g transform="translate(812,1216)"><rect width="100" height="50" rx="6" fill="url(#checker)"/><rect width="100" height="50" rx="6" fill="rgb(65,133,222)" fill-opacity="0.2" stroke="#D1D5DB" stroke-width="1"/><text y="64" class="sn">action-ring</text><text y="78" class="sh">rgba(65,133,222,0.2)</text></g>
<!-- Focus/Action row 2 -->
<g transform="translate(0,1310)"><rect width="100" height="50" rx="6" fill="url(#checker)"/><rect width="100" height="50" rx="6" fill="rgb(254,226,226)" fill-opacity="0.35" stroke="#D1D5DB" stroke-width="1"/><text y="64" class="sn">danger-bg-subtle</text><text y="78" class="sh">rgba(254,226,226,0.35)</text></g>
<g transform="translate(116,1310)"><rect width="100" height="50" rx="6" fill="url(#checker)"/><rect width="100" height="50" rx="6" fill="rgb(254,226,226)" fill-opacity="0.55" stroke="#D1D5DB" stroke-width="1"/><text y="64" class="sn">danger-bg-medium</text><text y="78" class="sh">rgba(254,226,226,0.55)</text></g>

<!-- Button Colors -->
<text class="gl" y="1434">Button Colors</text>
<!-- Row 0 -->
<g transform="translate(0,1442)"><rect width="100" height="50" rx="6" fill="#ffffff" stroke="#D1D5DB" stroke-width="1"/><text y="64" class="sn">btn-loader-top</text><text y="78" class="sh">#ffffff</text></g>
<g transform="translate(116,1442)"><rect width="100" height="50" rx="6" fill="url(#checker)"/><rect width="100" height="50" rx="6" fill="rgb(255,255,255)" fill-opacity="0.3" stroke="#D1D5DB" stroke-width="1"/><text y="64" class="sn">btn-loader-fade</text><text y="78" class="sh">rgba(255,255,255,0.3)</text></g>
<g transform="translate(232,1442)"><rect width="100" height="50" rx="6" fill="#4185DE" stroke="#D1D5DB" stroke-width="1"/><text y="64" class="sn">btn-primary-bg</text><text y="78" class="sh">#4185DE</text></g>
<g transform="translate(348,1442)"><rect width="100" height="50" rx="6" fill="#FFFFFF" stroke="#D1D5DB" stroke-width="1"/><text y="64" class="sn">btn-primary-text</text><text y="78" class="sh">#FFFFFF</text></g>
<g transform="translate(464,1442)"><rect width="100" height="50" rx="6" fill="#236ac7" stroke="#D1D5DB" stroke-width="1"/><text y="64" class="sn">btn-primary-hover</text><text y="78" class="sh">#236ac7</text></g>
<g transform="translate(580,1442)"><rect width="100" height="50" rx="6" fill="#1c539c" stroke="#D1D5DB" stroke-width="1"/><text y="64" class="sn">btn-primary-active</text><text y="78" class="sh">#1c539c</text></g>
<g transform="translate(696,1442)"><rect width="100" height="50" rx="6" fill="#acbfd7" stroke="#D1D5DB" stroke-width="1"/><text y="64" class="sn">btn-primary-dis-bg</text><text y="78" class="sh">#acbfd7</text></g>
<g transform="translate(812,1442)"><rect width="100" height="50" rx="6" fill="#f2f2f2" stroke="#D1D5DB" stroke-width="1"/><text y="64" class="sn">btn-primary-dis-txt</text><text y="78" class="sh">#f2f2f2</text></g>
<!-- Row 1: Ghost -->
<g transform="translate(0,1536)"><rect width="100" height="50" rx="6" fill="#ecf3fc" stroke="#D1D5DB" stroke-width="1"/><text y="64" class="sn">btn-ghost-bg</text><text y="78" class="sh">#ecf3fc</text></g>
<g transform="translate(116,1536)"><rect width="100" height="50" rx="6" fill="#356dc0" stroke="#D1D5DB" stroke-width="1"/><text y="64" class="sn">btn-ghost-text</text><text y="78" class="sh">#356dc0</text></g>
<g transform="translate(232,1536)"><rect width="100" height="50" rx="6" fill="#c6daf6" stroke="#D1D5DB" stroke-width="1"/><text y="64" class="sn">btn-ghost-border</text><text y="78" class="sh">#c6daf6</text></g>
<g transform="translate(348,1536)"><rect width="100" height="50" rx="6" fill="#c1d8f5" stroke="#D1D5DB" stroke-width="1"/><text y="64" class="sn">btn-ghost-hover</text><text y="78" class="sh">#c1d8f5</text></g>
<g transform="translate(464,1536)"><rect width="100" height="50" rx="6" fill="#95bcee" stroke="#D1D5DB" stroke-width="1"/><text y="64" class="sn">btn-ghost-active</text><text y="78" class="sh">#95bcee</text></g>
<g transform="translate(580,1536)"><rect width="100" height="50" rx="6" fill="#f1f4f8" stroke="#D1D5DB" stroke-width="1"/><text y="64" class="sn">btn-ghost-dis-bg</text><text y="78" class="sh">#f1f4f8</text></g>
<g transform="translate(696,1536)"><rect width="100" height="50" rx="6" fill="#95a9c6" stroke="#D1D5DB" stroke-width="1"/><text y="64" class="sn">btn-ghost-dis-txt</text><text y="78" class="sh">#95a9c6</text></g>
<g transform="translate(812,1536)"><rect width="100" height="50" rx="6" fill="#d2dce9" stroke="#D1D5DB" stroke-width="1"/><text y="64" class="sn">btn-ghost-dis-brd</text><text y="78" class="sh">#d2dce9</text></g>
<!-- Row 2: Danger + Ghost-danger start -->
<g transform="translate(0,1630)"><rect width="100" height="50" rx="6" fill="#ef4444" stroke="#D1D5DB" stroke-width="1"/><text y="64" class="sn">btn-danger-bg</text><text y="78" class="sh">#ef4444</text></g>
<g transform="translate(116,1630)"><rect width="100" height="50" rx="6" fill="#FFFFFF" stroke="#D1D5DB" stroke-width="1"/><text y="64" class="sn">btn-danger-text</text><text y="78" class="sh">#FFFFFF</text></g>
<g transform="translate(232,1630)"><rect width="100" height="50" rx="6" fill="#eb1414" stroke="#D1D5DB" stroke-width="1"/><text y="64" class="sn">btn-danger-hover</text><text y="78" class="sh">#eb1414</text></g>
<g transform="translate(348,1630)"><rect width="100" height="50" rx="6" fill="#bc1010" stroke="#D1D5DB" stroke-width="1"/><text y="64" class="sn">btn-danger-active</text><text y="78" class="sh">#bc1010</text></g>
<g transform="translate(464,1630)"><rect width="100" height="50" rx="6" fill="#e1b7b7" stroke="#D1D5DB" stroke-width="1"/><text y="64" class="sn">btn-danger-dis-bg</text><text y="78" class="sh">#e1b7b7</text></g>
<g transform="translate(580,1630)"><rect width="100" height="50" rx="6" fill="#f2f2f2" stroke="#D1D5DB" stroke-width="1"/><text y="64" class="sn">btn-danger-dis-txt</text><text y="78" class="sh">#f2f2f2</text></g>
<g transform="translate(696,1630)"><rect width="100" height="50" rx="6" fill="#fef2f2" stroke="#D1D5DB" stroke-width="1"/><text y="64" class="sn">btn-ghd-bg</text><text y="78" class="sh">#fef2f2</text></g>
<g transform="translate(812,1630)"><rect width="100" height="50" rx="6" fill="#dc2626" stroke="#D1D5DB" stroke-width="1"/><text y="64" class="sn">btn-ghd-text</text><text y="78" class="sh">#dc2626</text></g>
<!-- Row 3: Ghost-danger continued -->
<g transform="translate(0,1724)"><rect width="100" height="50" rx="6" fill="#fecaca" stroke="#D1D5DB" stroke-width="1"/><text y="64" class="sn">btn-ghd-border</text><text y="78" class="sh">#fecaca</text></g>
<g transform="translate(116,1724)"><rect width="100" height="50" rx="6" fill="#fee2e2" stroke="#D1D5DB" stroke-width="1"/><text y="64" class="sn">btn-ghd-hover</text><text y="78" class="sh">#fee2e2</text></g>
<g transform="translate(232,1724)"><rect width="100" height="50" rx="6" fill="#fecaca" stroke="#D1D5DB" stroke-width="1"/><text y="64" class="sn">btn-ghd-active</text><text y="78" class="sh">#fecaca</text></g>
<g transform="translate(348,1724)"><rect width="100" height="50" rx="6" fill="#fef2f2" stroke="#D1D5DB" stroke-width="1"/><text y="64" class="sn">btn-ghd-dis-bg</text><text y="78" class="sh">#fef2f2</text></g>
<g transform="translate(464,1724)"><rect width="100" height="50" rx="6" fill="#f87171" stroke="#D1D5DB" stroke-width="1"/><text y="64" class="sn">btn-ghd-dis-txt</text><text y="78" class="sh">#f87171</text></g>
<g transform="translate(580,1724)"><rect width="100" height="50" rx="6" fill="#fecaca" stroke="#D1D5DB" stroke-width="1"/><text y="64" class="sn">btn-ghd-dis-brd</text><text y="78" class="sh">#fecaca</text></g>

<!-- Input Colors -->
<text class="gl" y="1848">Input Colors</text>
<g transform="translate(0,1856)"><rect width="100" height="50" rx="6" fill="#D1D5DB" stroke="#D1D5DB" stroke-width="1"/><text y="64" class="sn">input-border</text><text y="78" class="sh">#D1D5DB</text></g>
<g transform="translate(116,1856)"><rect width="100" height="50" rx="6" fill="#4185DE" stroke="#D1D5DB" stroke-width="1"/><text y="64" class="sn">input-border-focus</text><text y="78" class="sh">#4185DE</text></g>
<g transform="translate(232,1856)"><rect width="100" height="50" rx="6" fill="#f9c6c6" stroke="#D1D5DB" stroke-width="1"/><text y="64" class="sn">input-border-error</text><text y="78" class="sh">#f9c6c6</text></g>
<g transform="translate(348,1856)"><rect width="100" height="50" rx="6" fill="#fef2f2" stroke="#D1D5DB" stroke-width="1"/><text y="64" class="sn">input-bg-error</text><text y="78" class="sh">#fef2f2</text></g>
<g transform="translate(464,1856)"><rect width="100" height="50" rx="6" fill="#FFFFFF" stroke="#D1D5DB" stroke-width="1"/><text y="64" class="sn">popup-background</text><text y="78" class="sh">#FFFFFF</text></g>
<g transform="translate(580,1856)"><rect width="100" height="50" rx="6" fill="#FFFFFF" stroke="#D1D5DB" stroke-width="1"/><text y="64" class="sn">sidebar-background</text><text y="78" class="sh">#FFFFFF</text></g>

<!-- Link Colors -->
<text class="gl" y="1980">Link Colors</text>
<g transform="translate(0,1988)"><rect width="100" height="50" rx="6" fill="#4185DE" stroke="#D1D5DB" stroke-width="1"/><text y="64" class="sn">link-text</text><text y="78" class="sh">#4185DE</text></g>
<g transform="translate(116,1988)"><rect width="100" height="50" rx="6" fill="#0951ae" stroke="#D1D5DB" stroke-width="1"/><text y="64" class="sn">link-hover</text><text y="78" class="sh">#0951ae</text></g>

<!-- Toast Colors -->
<text class="gl" y="2112">Toast Colors</text>
<g transform="translate(0,2120)"><rect width="100" height="50" rx="6" fill="#fecaca" stroke="#D1D5DB" stroke-width="1"/><text y="64" class="sn">toast-error-bg</text><text y="78" class="sh">#fecaca</text></g>
<g transform="translate(116,2120)"><rect width="100" height="50" rx="6" fill="#7f1c1d" stroke="#D1D5DB" stroke-width="1"/><text y="64" class="sn">toast-error-text</text><text y="78" class="sh">#7f1c1d</text></g>
<g transform="translate(232,2120)"><rect width="100" height="50" rx="6" fill="#d1fae5" stroke="#D1D5DB" stroke-width="1"/><text y="64" class="sn">toast-success-bg</text><text y="78" class="sh">#d1fae5</text></g>
<g transform="translate(348,2120)"><rect width="100" height="50" rx="6" fill="#065f46" stroke="#D1D5DB" stroke-width="1"/><text y="64" class="sn">toast-success-text</text><text y="78" class="sh">#065f46</text></g>

<!-- Calendar Colors -->
<text class="gl" y="2244">Calendar Colors</text>
<!-- Row 0 -->
<g transform="translate(0,2252)"><rect width="100" height="50" rx="6" fill="#bae6fd" stroke="#D1D5DB" stroke-width="1"/><text y="64" class="sn">cal-scheduled</text><text y="78" class="sh">#bae6fd</text></g>
<g transform="translate(116,2252)"><rect width="100" height="50" rx="6" fill="#0284c7" stroke="#D1D5DB" stroke-width="1"/><text y="64" class="sn">cal-sched-border</text><text y="78" class="sh">#0284c7</text></g>
<g transform="translate(232,2252)"><rect width="100" height="50" rx="6" fill="#0c4a6e" stroke="#D1D5DB" stroke-width="1"/><text y="64" class="sn">cal-sched-text</text><text y="78" class="sh">#0c4a6e</text></g>
<g transform="translate(348,2252)"><rect width="100" height="50" rx="6" fill="#e0f2fe" stroke="#D1D5DB" stroke-width="1"/><text y="64" class="sn">cal-deferred</text><text y="78" class="sh">#e0f2fe</text></g>
<g transform="translate(464,2252)"><rect width="100" height="50" rx="6" fill="#38bdf8" stroke="#D1D5DB" stroke-width="1"/><text y="64" class="sn">cal-defer-border</text><text y="78" class="sh">#38bdf8</text></g>
<g transform="translate(580,2252)"><rect width="100" height="50" rx="6" fill="#075985" stroke="#D1D5DB" stroke-width="1"/><text y="64" class="sn">cal-defer-text</text><text y="78" class="sh">#075985</text></g>
<g transform="translate(696,2252)"><rect width="100" height="50" rx="6" fill="#fef3c7" stroke="#D1D5DB" stroke-width="1"/><text y="64" class="sn">cal-today-bg</text><text y="78" class="sh">#fef3c7</text></g>
<g transform="translate(812,2252)"><rect width="100" height="50" rx="6" fill="#f59e0b" stroke="#D1D5DB" stroke-width="1"/><text y="64" class="sn">cal-today-border</text><text y="78" class="sh">#f59e0b</text></g>
<!-- Row 1 -->
<g transform="translate(0,2346)"><rect width="100" height="50" rx="6" fill="#e5e7eb" stroke="#D1D5DB" stroke-width="1"/><text y="64" class="sn">cal-grid-line</text><text y="78" class="sh">#e5e7eb</text></g>
<g transform="translate(116,2346)"><rect width="100" height="50" rx="6" fill="#9ca3af" stroke="#D1D5DB" stroke-width="1"/><text y="64" class="sn">cal-hour-text</text><text y="78" class="sh">#9ca3af</text></g>
<g transform="translate(232,2346)"><rect width="100" height="50" rx="6" fill="#f9fafb" stroke="#D1D5DB" stroke-width="1"/><text y="64" class="sn">cal-weekend-bg</text><text y="78" class="sh">#f9fafb</text></g>
<g transform="translate(348,2346)"><rect width="100" height="50" rx="6" fill="#f8f9fa" stroke="#D1D5DB" stroke-width="1"/><text y="64" class="sn">cal-outside-biz</text><text y="78" class="sh">#f8f9fa</text></g>
<g transform="translate(464,2346)"><rect width="100" height="50" rx="6" fill="#fafbfc" stroke="#D1D5DB" stroke-width="1"/><text y="64" class="sn">heat-0</text><text y="78" class="sh">#fafbfc</text></g>
<g transform="translate(580,2346)"><rect width="100" height="50" rx="6" fill="#e0f2fe" stroke="#D1D5DB" stroke-width="1"/><text y="64" class="sn">heat-1</text><text y="78" class="sh">#e0f2fe</text></g>
<g transform="translate(696,2346)"><rect width="100" height="50" rx="6" fill="#bae6fd" stroke="#D1D5DB" stroke-width="1"/><text y="64" class="sn">heat-2</text><text y="78" class="sh">#bae6fd</text></g>
<g transform="translate(812,2346)"><rect width="100" height="50" rx="6" fill="#7dd3fc" stroke="#D1D5DB" stroke-width="1"/><text y="64" class="sn">heat-3</text><text y="78" class="sh">#7dd3fc</text></g>
<!-- Row 2 -->
<g transform="translate(0,2440)"><rect width="100" height="50" rx="6" fill="#38bdf8" stroke="#D1D5DB" stroke-width="1"/><text y="64" class="sn">heat-4</text><text y="78" class="sh">#38bdf8</text></g>

<!-- Menu Colors -->
<text class="gl" y="2564">Menu Colors</text>
<g transform="translate(0,2572)"><rect width="100" height="50" rx="6" fill="#374151" stroke="#D1D5DB" stroke-width="1"/><text y="64" class="sn">menu-default-text</text><text y="78" class="sh">#374151</text></g>
<g transform="translate(116,2572)"><rect width="100" height="50" rx="6" fill="#FFFFFF" stroke="#D1D5DB" stroke-width="1"/><text y="64" class="sn">menu-hover-bg</text><text y="78" class="sh">#FFFFFF</text></g>
<g transform="translate(232,2572)"><rect width="100" height="50" rx="6" fill="#236ac7" stroke="#D1D5DB" stroke-width="1"/><text y="64" class="sn">menu-hover-txt</text><text y="78" class="sh">#236ac7</text></g>
<g transform="translate(348,2572)"><rect width="100" height="50" rx="6" fill="#FFFFFF" stroke="#D1D5DB" stroke-width="1"/><text y="64" class="sn">menu-active-bg</text><text y="78" class="sh">#FFFFFF</text></g>
<g transform="translate(464,2572)"><rect width="100" height="50" rx="6" fill="#4185DE" stroke="#D1D5DB" stroke-width="1"/><text y="64" class="sn">menu-active-txt</text><text y="78" class="sh">#4185DE</text></g>
</g>

<!-- ============================================================ -->
<!-- STEP 2 — Typography                                          -->
<!-- ============================================================ -->
<g id="step-02-typography" transform="translate(1130,100)">
<text class="st" y="20">Step 2 — Typography</text>

<!-- Text Style Samples -->
<text font-family="Inter" font-size="48" font-weight="700" fill="#374151" letter-spacing="0" y="80">Display Text</text>
<text class="desc" y="98">.text-display · 48px · bold (700) · line-height 120%</text>

<text font-family="Inter" font-size="18" font-weight="500" fill="#374151" letter-spacing="0" y="140">Subtitle Text — The quick brown fox jumps</text>
<text class="desc" y="158">.text-subtitle · 18px · medium (500) · line-height 150%</text>

<text font-family="Inter" font-size="36" font-weight="700" fill="#374151" letter-spacing="0" y="204">Heading 1</text>
<text class="desc" y="222">.text-h1 · 36px · bold (700) · line-height 125%</text>

<text font-family="Inter" font-size="30" font-weight="600" fill="#374151" letter-spacing="0" y="266">Heading 2</text>
<text class="desc" y="284">.text-h2 · 30px · semibold (600) · line-height 130%</text>

<text font-family="Inter" font-size="24" font-weight="600" fill="#374151" letter-spacing="0" y="322">Heading 3</text>
<text class="desc" y="340">.text-h3 · 24px · semibold (600) · line-height 135%</text>

<text font-family="Inter" font-size="20" font-weight="500" fill="#374151" letter-spacing="0" y="374">Heading 4</text>
<text class="desc" y="392">.text-h4 · 20px · medium (500) · line-height 140%</text>

<text font-family="Inter" font-size="18" font-weight="400" fill="#374151" letter-spacing="0" y="430">Body Large — The quick brown fox jumps over the lazy dog</text>
<text class="desc" y="448">.text-body-l · 18px · normal (400) · line-height 150%</text>

<text font-family="Inter" font-size="16" font-weight="400" fill="#374151" letter-spacing="0" y="482">Body Medium — The quick brown fox jumps over the lazy dog</text>
<text class="desc" y="500">.text-body-m · 16px · normal (400) · line-height 150%</text>

<text font-family="Inter" font-size="14" font-weight="400" fill="#374151" letter-spacing="0" y="530">Body Small — The quick brown fox jumps over the lazy dog</text>
<text class="desc" y="548">.text-body-s · 14px · normal (400) · line-height 150%</text>

<text font-family="Inter" font-size="11" font-weight="400" fill="#374151" letter-spacing="0" y="574">Footnote text — The quick brown fox jumps over the lazy dog</text>
<text class="desc" y="590">.text-footnote · 11px · normal (400) · line-height 150%</text>

<text font-family="Inter" font-size="13" font-weight="600" fill="#374151" letter-spacing="0" y="616">Label Text — The Quick Brown Fox</text>
<text class="desc" y="634">.text-label · 13px · semibold (600) · line-height 140%</text>

<!-- Weight Scale -->
<text class="gl" y="680">Weight Scale (at 16px)</text>
<text font-family="Inter" font-size="16" font-weight="300" fill="#374151" letter-spacing="0" y="710">Light (300) — The quick brown fox jumps over the lazy dog</text>
<text font-family="Inter" font-size="16" font-weight="400" fill="#374151" letter-spacing="0" y="740">Normal (400) — The quick brown fox jumps over the lazy dog</text>
<text font-family="Inter" font-size="16" font-weight="500" fill="#374151" letter-spacing="0" y="770">Medium (500) — The quick brown fox jumps over the lazy dog</text>
<text font-family="Inter" font-size="16" font-weight="600" fill="#374151" letter-spacing="0" y="800">Semibold (600) — The quick brown fox jumps over the lazy dog</text>
<text font-family="Inter" font-size="16" font-weight="700" fill="#374151" letter-spacing="0" y="830">Bold (700) — The quick brown fox jumps over the lazy dog</text>

<!-- Fixed UI Chrome Sizes -->
<text class="gl" y="880">Fixed UI Chrome Sizes</text>
<text font-family="Inter" font-size="10" font-weight="400" fill="#374151" letter-spacing="0" y="906">10px (2xs) — The quick brown fox jumps over the lazy dog</text>
<text font-family="Inter" font-size="12" font-weight="400" fill="#374151" letter-spacing="0" y="928">12px (xs) — The quick brown fox jumps over the lazy dog</text>
<text font-family="Inter" font-size="14" font-weight="400" fill="#374151" letter-spacing="0" y="954">14px (sm) — The quick brown fox jumps over the lazy dog</text>
<text font-family="Inter" font-size="16" font-weight="400" fill="#374151" letter-spacing="0" y="982">16px (md) — The quick brown fox jumps over the lazy dog</text>
<text font-family="Inter" font-size="18" font-weight="400" fill="#374151" letter-spacing="0" y="1014">18px (lg) — The quick brown fox jumps over the lazy dog</text>
<text font-family="Inter" font-size="20" font-weight="400" fill="#374151" letter-spacing="0" y="1048">20px (xl) — The quick brown fox jumps over the lazy dog</text>
<text font-family="Inter" font-size="24" font-weight="400" fill="#374151" letter-spacing="0" y="1086">24px (2xl) — The quick brown fox jumps over the lazy dog</text>
<text font-family="Inter" font-size="28" font-weight="400" fill="#374151" letter-spacing="0" y="1128">28px (3xl) — The quick brown fox jumps</text>
<text font-family="Inter" font-size="48" font-weight="400" fill="#374151" letter-spacing="0" y="1190">48px (jumbo)</text>

<!-- Line Heights -->
<text class="gl" y="1240">Line Heights</text>
<text class="desc" y="1264">--lh-none: 1 · --lh-tight: 1.2 · --lh-snug: 1.3 · --lh-normal: 1.4</text>
<text class="desc" y="1280">--lh-relaxed: 1.5 · --lh-loose: 1.6 · --lh-legal: 1.7</text>
<text class="desc" y="1300">Content: display 120% · subtitle 150% · h1 125% · h2 130% · h3 135% · h4 140%</text>
<text class="desc" y="1316">body-m 150% · body-s 150% · footnote 150% · label 140%</text>
</g>

<!-- ============================================================ -->
<!-- STEP 3 — Shadows & Cards                                     -->
<!-- ============================================================ -->
<g id="step-03-shadows-cards" transform="translate(1130,1620)">
<text class="st" y="20">Step 3 — Shadows &amp; Cards</text>

<!-- Shadow Samples -->
<text class="gl" y="54">Shadow Levels</text>

<!-- Row 0: popover, dropdown, modal -->
<g transform="translate(0,70)">
<rect width="200" height="120" rx="12" fill="#FFFFFF" filter="url(#shadow-popover)"/>
<text font-family="Inter" font-size="14" font-weight="500" fill="#374151" letter-spacing="0" x="24" y="44">Popover</text>
<text font-family="Inter" font-size="11" font-weight="400" fill="#9CA3AF" x="24" y="62">0 4px 10px</text>
<text font-family="Inter" font-size="11" font-weight="400" fill="#9CA3AF" x="24" y="76">rgba(0,0,0,0.1)</text>
<text class="sl" y="140">--shadow-popover</text>
</g>

<g transform="translate(240,70)">
<rect width="200" height="120" rx="12" fill="#FFFFFF" filter="url(#shadow-dropdown)"/>
<text font-family="Inter" font-size="14" font-weight="500" fill="#374151" letter-spacing="0" x="24" y="44">Dropdown</text>
<text font-family="Inter" font-size="11" font-weight="400" fill="#9CA3AF" x="24" y="62">0 4px 20px</text>
<text font-family="Inter" font-size="11" font-weight="400" fill="#9CA3AF" x="24" y="76">rgba(0,0,0,0.15)</text>
<text class="sl" y="140">--shadow-dropdown</text>
</g>

<g transform="translate(480,70)">
<rect width="200" height="120" rx="12" fill="#FFFFFF" filter="url(#shadow-modal)"/>
<text font-family="Inter" font-size="14" font-weight="500" fill="#374151" letter-spacing="0" x="24" y="44">Modal</text>
<text font-family="Inter" font-size="11" font-weight="400" fill="#9CA3AF" x="24" y="62">0 4px 24px</text>
<text font-family="Inter" font-size="11" font-weight="400" fill="#9CA3AF" x="24" y="76">rgba(0,0,0,0.15)</text>
<text class="sl" y="140">--shadow-modal</text>
</g>

<!-- Row 1: elevated, auth, card-hover -->
<g transform="translate(0,240)">
<rect width="200" height="120" rx="12" fill="#FFFFFF" filter="url(#shadow-elevated)"/>
<text font-family="Inter" font-size="14" font-weight="500" fill="#374151" letter-spacing="0" x="24" y="44">Elevated</text>
<text font-family="Inter" font-size="11" font-weight="400" fill="#9CA3AF" x="24" y="62">0 8px 32px</text>
<text font-family="Inter" font-size="11" font-weight="400" fill="#9CA3AF" x="24" y="76">rgba(0,0,0,0.2)</text>
<text class="sl" y="140">--shadow-elevated</text>
</g>

<g transform="translate(240,240)">
<rect width="200" height="120" rx="12" fill="#FFFFFF" filter="url(#shadow-auth)"/>
<text font-family="Inter" font-size="14" font-weight="500" fill="#374151" letter-spacing="0" x="24" y="44">Auth</text>
<text font-family="Inter" font-size="11" font-weight="400" fill="#9CA3AF" x="24" y="62">0 18px 50px</text>
<text font-family="Inter" font-size="11" font-weight="400" fill="#9CA3AF" x="24" y="76">rgba(15,23,42,0.2)</text>
<text class="sl" y="140">--shadow-auth</text>
</g>

<g transform="translate(480,240)">
<rect width="200" height="120" rx="12" fill="#FFFFFF" filter="url(#shadow-card-hover)"/>
<text font-family="Inter" font-size="14" font-weight="500" fill="#374151" letter-spacing="0" x="24" y="44">Card Hover</text>
<text font-family="Inter" font-size="11" font-weight="400" fill="#9CA3AF" x="24" y="62">0 4px 16px</text>
<text font-family="Inter" font-size="11" font-weight="400" fill="#9CA3AF" x="24" y="76">rgba(0,0,0,0.08)</text>
<text class="sl" y="140">--card-shadow-hover</text>
</g>

<!-- Focus Rings -->
<text class="gl" y="430">Focus Rings</text>

<g transform="translate(0,446)">
<rect x="-2" y="-2" width="204" height="44" rx="10" fill="rgb(37,99,235)" fill-opacity="0.2"/>
<rect width="200" height="40" rx="8" fill="#FFFFFF" stroke="#D1D5DB" stroke-width="1"/>
<text font-family="Inter" font-size="12" font-weight="400" fill="#374151" x="16" y="25">Input with focus ring</text>
<text class="sl" y="58">--shadow-focus-ring · 0 0 0 2px rgba(37,99,235,0.2)</text>
</g>

<g transform="translate(240,446)">
<rect x="-3" y="-3" width="206" height="46" rx="11" fill="rgb(37,99,235)" fill-opacity="0.2"/>
<rect width="200" height="40" rx="8" fill="#FFFFFF" stroke="#D1D5DB" stroke-width="1"/>
<text font-family="Inter" font-size="12" font-weight="400" fill="#374151" x="16" y="25">Wide focus ring</text>
<text class="sl" y="58">--shadow-focus-ring-wide · 0 0 0 3px rgba(37,99,235,0.2)</text>
</g>

<g transform="translate(480,446)">
<rect x="-3" y="-3" width="206" height="46" rx="11" fill="rgb(239,68,68)" fill-opacity="0.2"/>
<rect width="200" height="40" rx="8" fill="#FFFFFF" stroke="#D1D5DB" stroke-width="1"/>
<text font-family="Inter" font-size="12" font-weight="400" fill="#374151" x="16" y="25">Danger focus ring</text>
<text class="sl" y="58">--shadow-focus-ring-danger · 0 0 0 3px rgba(239,68,68,0.2)</text>
</g>

<!-- Card Tokens -->
<text class="gl" y="554">Card Tokens</text>

<g transform="translate(0,570)">
<!-- Card with all tokens applied -->
<rect width="300" height="180" rx="12" fill="#FFFFFF" stroke="#E3E8EF" stroke-width="1"/>
<!-- Padding indicators -->
<line x1="24" y1="0" x2="24" y2="180" stroke="#EDF3FC" stroke-width="1" stroke-dasharray="4,4"/>
<line x1="276" y1="0" x2="276" y2="180" stroke="#EDF3FC" stroke-width="1" stroke-dasharray="4,4"/>
<line x1="0" y1="24" x2="300" y2="24" stroke="#EDF3FC" stroke-width="1" stroke-dasharray="4,4"/>
<line x1="0" y1="156" x2="300" y2="156" stroke="#EDF3FC" stroke-width="1" stroke-dasharray="4,4"/>
<!-- Content inside card -->
<text font-family="Inter" font-size="14" font-weight="600" fill="#374151" x="24" y="52">Card Title</text>
<text font-family="Inter" font-size="14" font-weight="400" fill="#6B7280" x="24" y="76">Card content goes here with</text>
<text font-family="Inter" font-size="14" font-weight="400" fill="#6B7280" x="24" y="94">24px padding on all sides.</text>
<!-- Token labels -->
<text font-family="Inter" font-size="11" font-weight="400" fill="#4185DE" x="4" y="96">24px</text>
<text font-family="Inter" font-size="11" font-weight="400" fill="#4185DE" x="130" y="16">24px</text>
</g>

<g transform="translate(340,570)">
<text class="desc" y="16">--card-radius: 12px</text>
<text class="desc" y="34">--card-padding: 24px</text>
<text class="desc" y="52">--card-border: 1px solid #E3E8EF</text>
<text class="desc" y="70">--card-shadow-hover: 0 4px 16px rgba(0,0,0,0.08)</text>
<text class="desc" y="100">--section-py: 64px</text>
<text class="desc" y="118">--section-py-mobile: 40px</text>
<text class="desc" y="136">--section-max-width: 900px</text>
<text class="desc" y="154">--section-px: 20px</text>
</g>
</g>

</svg>
