<svg xmlns="http://www.w3.org/2000/svg" viewBox="0 0 2130 4400">
<style>
.sn{font-family:Inter;font-size:11px;fill:#374151}
.sh{font-family:Inter;font-size:11px;fill:#9CA3AF}
.gl{font-family:Inter;font-size:14px;font-weight:600;fill:#6B7280}
.st{font-family:Inter;font-size:20px;font-weight:600;fill:#374151}
.desc{font-family:Inter;font-size:11px;font-weight:400;fill:#9CA3AF}
.sl{font-family:Inter;font-size:11px;font-weight:400;fill:#9CA3AF}
</style>
<defs>
<filter id="shadow-dropdown" x="-20%" y="-20%" width="140%" height="160%"><feDropShadow dx="0" dy="4" stdDeviation="10" flood-color="rgb(0,0,0)" flood-opacity="0.15"/></filter>
<filter id="shadow-focus" x="-10%" y="-20%" width="120%" height="140%"><feDropShadow dx="0" dy="0" stdDeviation="1" flood-color="rgb(65,133,222)" flood-opacity="0.2"/></filter>
</defs>

<!-- ============================================================ -->
<!-- STEP 4 — Btn                                                  -->
<!-- ============================================================ -->
<g id="step-04-btn" transform="translate(100,60)">
<text class="st" y="20">Step 4 — Btn</text>
<text class="desc" y="40">6 variants × 5 states × 3 sizes · border-radius: 6px</text>

<!-- SIZE LEGEND -->
<text class="gl" y="76">Sizes</text>
<text class="desc" x="0" y="96">sm: padding 6px 12px · font 14px</text>
<text class="desc" x="0" y="112">md: padding 10px 16px · font 14px</text>
<text class="desc" x="0" y="128">lg: padding 14px 20px · font 16px</text>

<!-- ======== PRIMARY ======== -->
<text class="gl" y="164">Primary</text>

<!-- sm row -->
<text class="sh" x="0" y="190">sm</text>
<!-- default -->
<g transform="translate(30,176)">
<rect width="80" height="28" rx="6" fill="#4185DE"/>
<text font-family="Inter" font-size="14" font-weight="600" fill="#FFFFFF" text-anchor="middle" x="40" y="19">Save</text>
</g>
<text class="sh" x="30" y="218">default</text>
<!-- hover -->
<g transform="translate(130,176)">
<rect width="80" height="28" rx="6" fill="#236ac7"/>
<text font-family="Inter" font-size="14" font-weight="600" fill="#FFFFFF" text-anchor="middle" x="40" y="19">Save</text>
</g>
<text class="sh" x="130" y="218">hover</text>
<!-- active -->
<g transform="translate(230,176)">
<rect width="80" height="28" rx="6" fill="#1c539c"/>
<text font-family="Inter" font-size="14" font-weight="600" fill="#FFFFFF" text-anchor="middle" x="40" y="19">Save</text>
</g>
<text class="sh" x="230" y="218">active</text>
<!-- disabled -->
<g transform="translate(330,176)">
<rect width="80" height="28" rx="6" fill="#acbfd7"/>
<text font-family="Inter" font-size="14" font-weight="600" fill="#f2f2f2" text-anchor="middle" x="40" y="19">Save</text>
</g>
<text class="sh" x="330" y="218">disabled</text>
<!-- loading -->
<g transform="translate(430,176)">
<rect width="80" height="28" rx="6" fill="#4185DE" opacity="0.8"/>
<circle cx="40" cy="14" r="7" fill="none" stroke="rgba(255,255,255,0.3)" stroke-width="2"/>
<path d="M40,7 A7,7 0 0,1 47,14" fill="none" stroke="#fff" stroke-width="2" stroke-linecap="round"/>
</g>
<text class="sh" x="430" y="218">loading</text>

<!-- md row -->
<text class="sh" x="0" y="250">md</text>
<g transform="translate(30,232)">
<rect width="96" height="36" rx="6" fill="#4185DE"/>
<text font-family="Inter" font-size="14" font-weight="600" fill="#FFFFFF" text-anchor="middle" x="48" y="23">Save</text>
</g>
<g transform="translate(146,232)">
<rect width="96" height="36" rx="6" fill="#236ac7"/>
<text font-family="Inter" font-size="14" font-weight="600" fill="#FFFFFF" text-anchor="middle" x="48" y="23">Save</text>
</g>
<g transform="translate(262,232)">
<rect width="96" height="36" rx="6" fill="#1c539c"/>
<text font-family="Inter" font-size="14" font-weight="600" fill="#FFFFFF" text-anchor="middle" x="48" y="23">Save</text>
</g>
<g transform="translate(378,232)">
<rect width="96" height="36" rx="6" fill="#acbfd7"/>
<text font-family="Inter" font-size="14" font-weight="600" fill="#f2f2f2" text-anchor="middle" x="48" y="23">Save</text>
</g>
<g transform="translate(494,232)">
<rect width="96" height="36" rx="6" fill="#4185DE" opacity="0.8"/>
<circle cx="48" cy="18" r="7" fill="none" stroke="rgba(255,255,255,0.3)" stroke-width="2"/>
<path d="M48,11 A7,7 0 0,1 55,18" fill="none" stroke="#fff" stroke-width="2" stroke-linecap="round"/>
</g>

<!-- lg row -->
<text class="sh" x="0" y="300">lg</text>
<g transform="translate(30,280)">
<rect width="110" height="44" rx="6" fill="#4185DE"/>
<text font-family="Inter" font-size="16" font-weight="600" fill="#FFFFFF" text-anchor="middle" x="55" y="28">Save</text>
</g>
<g transform="translate(160,280)">
<rect width="110" height="44" rx="6" fill="#236ac7"/>
<text font-family="Inter" font-size="16" font-weight="600" fill="#FFFFFF" text-anchor="middle" x="55" y="28">Save</text>
</g>
<g transform="translate(290,280)">
<rect width="110" height="44" rx="6" fill="#1c539c"/>
<text font-family="Inter" font-size="16" font-weight="600" fill="#FFFFFF" text-anchor="middle" x="55" y="28">Save</text>
</g>
<g transform="translate(420,280)">
<rect width="110" height="44" rx="6" fill="#acbfd7"/>
<text font-family="Inter" font-size="16" font-weight="600" fill="#f2f2f2" text-anchor="middle" x="55" y="28">Save</text>
</g>
<g transform="translate(550,280)">
<rect width="110" height="44" rx="6" fill="#4185DE" opacity="0.8"/>
<circle cx="55" cy="22" r="7" fill="none" stroke="rgba(255,255,255,0.3)" stroke-width="2"/>
<path d="M55,15 A7,7 0 0,1 62,22" fill="none" stroke="#fff" stroke-width="2" stroke-linecap="round"/>
</g>

<!-- ======== GHOST ======== -->
<text class="gl" y="356">Ghost</text>

<text class="sh" x="0" y="382">sm</text>
<g transform="translate(30,368)">
<rect width="80" height="28" rx="6" fill="#ecf3fc" stroke="#c6daf6" stroke-width="1"/>
<text font-family="Inter" font-size="14" font-weight="600" fill="#356dc0" text-anchor="middle" x="40" y="19">Edit</text>
</g>
<g transform="translate(130,368)">
<rect width="80" height="28" rx="6" fill="#c1d8f5" stroke="#c6daf6" stroke-width="1"/>
<text font-family="Inter" font-size="14" font-weight="600" fill="#356dc0" text-anchor="middle" x="40" y="19">Edit</text>
</g>
<g transform="translate(230,368)">
<rect width="80" height="28" rx="6" fill="#95bcee" stroke="#c6daf6" stroke-width="1"/>
<text font-family="Inter" font-size="14" font-weight="600" fill="#356dc0" text-anchor="middle" x="40" y="19">Edit</text>
</g>
<g transform="translate(330,368)">
<rect width="80" height="28" rx="6" fill="#f1f4f8" stroke="#d2dce9" stroke-width="1"/>
<text font-family="Inter" font-size="14" font-weight="600" fill="#95a9c6" text-anchor="middle" x="40" y="19">Edit</text>
</g>
<g transform="translate(430,368)">
<rect width="80" height="28" rx="6" fill="#ecf3fc" stroke="#c6daf6" stroke-width="1" opacity="0.8"/>
<circle cx="40" cy="14" r="7" fill="none" stroke="rgba(255,255,255,0.3)" stroke-width="2"/>
<path d="M40,7 A7,7 0 0,1 47,14" fill="none" stroke="#356dc0" stroke-width="2" stroke-linecap="round"/>
</g>

<text class="sh" x="0" y="424">md</text>
<g transform="translate(30,406)">
<rect width="96" height="36" rx="6" fill="#ecf3fc" stroke="#c6daf6" stroke-width="1"/>
<text font-family="Inter" font-size="14" font-weight="600" fill="#356dc0" text-anchor="middle" x="48" y="23">Edit</text>
</g>
<g transform="translate(146,406)">
<rect width="96" height="36" rx="6" fill="#c1d8f5" stroke="#c6daf6" stroke-width="1"/>
<text font-family="Inter" font-size="14" font-weight="600" fill="#356dc0" text-anchor="middle" x="48" y="23">Edit</text>
</g>
<g transform="translate(262,406)">
<rect width="96" height="36" rx="6" fill="#95bcee" stroke="#c6daf6" stroke-width="1"/>
<text font-family="Inter" font-size="14" font-weight="600" fill="#356dc0" text-anchor="middle" x="48" y="23">Edit</text>
</g>
<g transform="translate(378,406)">
<rect width="96" height="36" rx="6" fill="#f1f4f8" stroke="#d2dce9" stroke-width="1"/>
<text font-family="Inter" font-size="14" font-weight="600" fill="#95a9c6" text-anchor="middle" x="48" y="23">Edit</text>
</g>
<g transform="translate(494,406)">
<rect width="96" height="36" rx="6" fill="#ecf3fc" stroke="#c6daf6" stroke-width="1" opacity="0.8"/>
<circle cx="48" cy="18" r="7" fill="none" stroke="rgba(255,255,255,0.3)" stroke-width="2"/>
<path d="M48,11 A7,7 0 0,1 55,18" fill="none" stroke="#356dc0" stroke-width="2" stroke-linecap="round"/>
</g>

<text class="sh" x="0" y="470">lg</text>
<g transform="translate(30,452)">
<rect width="110" height="44" rx="6" fill="#ecf3fc" stroke="#c6daf6" stroke-width="1"/>
<text font-family="Inter" font-size="16" font-weight="600" fill="#356dc0" text-anchor="middle" x="55" y="28">Edit</text>
</g>
<g transform="translate(160,452)">
<rect width="110" height="44" rx="6" fill="#c1d8f5" stroke="#c6daf6" stroke-width="1"/>
<text font-family="Inter" font-size="16" font-weight="600" fill="#356dc0" text-anchor="middle" x="55" y="28">Edit</text>
</g>
<g transform="translate(290,452)">
<rect width="110" height="44" rx="6" fill="#95bcee" stroke="#c6daf6" stroke-width="1"/>
<text font-family="Inter" font-size="16" font-weight="600" fill="#356dc0" text-anchor="middle" x="55" y="28">Edit</text>
</g>
<g transform="translate(420,452)">
<rect width="110" height="44" rx="6" fill="#f1f4f8" stroke="#d2dce9" stroke-width="1"/>
<text font-family="Inter" font-size="16" font-weight="600" fill="#95a9c6" text-anchor="middle" x="55" y="28">Edit</text>
</g>
<g transform="translate(550,452)">
<rect width="110" height="44" rx="6" fill="#ecf3fc" stroke="#c6daf6" stroke-width="1" opacity="0.8"/>
<circle cx="55" cy="22" r="7" fill="none" stroke="rgba(255,255,255,0.3)" stroke-width="2"/>
<path d="M55,15 A7,7 0 0,1 62,22" fill="none" stroke="#356dc0" stroke-width="2" stroke-linecap="round"/>
</g>

<!-- ======== DANGER ======== -->
<text class="gl" y="528">Danger</text>

<text class="sh" x="0" y="554">sm</text>
<g transform="translate(30,540)">
<rect width="80" height="28" rx="6" fill="#ef4444"/>
<text font-family="Inter" font-size="14" font-weight="700" fill="#FFFFFF" text-anchor="middle" x="40" y="19">Delete</text>
</g>
<g transform="translate(130,540)">
<rect width="80" height="28" rx="6" fill="#eb1414"/>
<text font-family="Inter" font-size="14" font-weight="700" fill="#FFFFFF" text-anchor="middle" x="40" y="19">Delete</text>
</g>
<g transform="translate(230,540)">
<rect width="80" height="28" rx="6" fill="#bc1010"/>
<text font-family="Inter" font-size="14" font-weight="700" fill="#FFFFFF" text-anchor="middle" x="40" y="19">Delete</text>
</g>
<g transform="translate(330,540)">
<rect width="80" height="28" rx="6" fill="#e1b7b7"/>
<text font-family="Inter" font-size="14" font-weight="700" fill="#f2f2f2" text-anchor="middle" x="40" y="19">Delete</text>
</g>
<g transform="translate(430,540)">
<rect width="80" height="28" rx="6" fill="#ef4444" opacity="0.8"/>
<circle cx="40" cy="14" r="7" fill="none" stroke="rgba(255,255,255,0.3)" stroke-width="2"/>
<path d="M40,7 A7,7 0 0,1 47,14" fill="none" stroke="#fff" stroke-width="2" stroke-linecap="round"/>
</g>

<text class="sh" x="0" y="596">md</text>
<g transform="translate(30,578)">
<rect width="96" height="36" rx="6" fill="#ef4444"/>
<text font-family="Inter" font-size="14" font-weight="700" fill="#FFFFFF" text-anchor="middle" x="48" y="23">Delete</text>
</g>
<g transform="translate(146,578)">
<rect width="96" height="36" rx="6" fill="#eb1414"/>
<text font-family="Inter" font-size="14" font-weight="700" fill="#FFFFFF" text-anchor="middle" x="48" y="23">Delete</text>
</g>
<g transform="translate(262,578)">
<rect width="96" height="36" rx="6" fill="#bc1010"/>
<text font-family="Inter" font-size="14" font-weight="700" fill="#FFFFFF" text-anchor="middle" x="48" y="23">Delete</text>
</g>
<g transform="translate(378,578)">
<rect width="96" height="36" rx="6" fill="#e1b7b7"/>
<text font-family="Inter" font-size="14" font-weight="700" fill="#f2f2f2" text-anchor="middle" x="48" y="23">Delete</text>
</g>
<g transform="translate(494,578)">
<rect width="96" height="36" rx="6" fill="#ef4444" opacity="0.8"/>
<circle cx="48" cy="18" r="7" fill="none" stroke="rgba(255,255,255,0.3)" stroke-width="2"/>
<path d="M48,11 A7,7 0 0,1 55,18" fill="none" stroke="#fff" stroke-width="2" stroke-linecap="round"/>
</g>

<text class="sh" x="0" y="642">lg</text>
<g transform="translate(30,624)">
<rect width="110" height="44" rx="6" fill="#ef4444"/>
<text font-family="Inter" font-size="16" font-weight="700" fill="#FFFFFF" text-anchor="middle" x="55" y="28">Delete</text>
</g>
<g transform="translate(160,624)">
<rect width="110" height="44" rx="6" fill="#eb1414"/>
<text font-family="Inter" font-size="16" font-weight="700" fill="#FFFFFF" text-anchor="middle" x="55" y="28">Delete</text>
</g>
<g transform="translate(290,624)">
<rect width="110" height="44" rx="6" fill="#bc1010"/>
<text font-family="Inter" font-size="16" font-weight="700" fill="#FFFFFF" text-anchor="middle" x="55" y="28">Delete</text>
</g>
<g transform="translate(420,624)">
<rect width="110" height="44" rx="6" fill="#e1b7b7"/>
<text font-family="Inter" font-size="16" font-weight="700" fill="#f2f2f2" text-anchor="middle" x="55" y="28">Delete</text>
</g>
<g transform="translate(550,624)">
<rect width="110" height="44" rx="6" fill="#ef4444" opacity="0.8"/>
<circle cx="55" cy="22" r="7" fill="none" stroke="rgba(255,255,255,0.3)" stroke-width="2"/>
<path d="M55,15 A7,7 0 0,1 62,22" fill="none" stroke="#fff" stroke-width="2" stroke-linecap="round"/>
</g>

<!-- ======== GHOST-DANGER ======== -->
<text class="gl" y="700">Ghost-Danger</text>

<text class="sh" x="0" y="726">sm</text>
<g transform="translate(30,712)">
<rect width="86" height="28" rx="6" fill="#fef2f2" stroke="#fecaca" stroke-width="1"/>
<text font-family="Inter" font-size="14" font-weight="600" fill="#dc2626" text-anchor="middle" x="43" y="19">Remove</text>
</g>
<g transform="translate(136,712)">
<rect width="86" height="28" rx="6" fill="#fee2e2" stroke="#fecaca" stroke-width="1"/>
<text font-family="Inter" font-size="14" font-weight="600" fill="#dc2626" text-anchor="middle" x="43" y="19">Remove</text>
</g>
<g transform="translate(242,712)">
<rect width="86" height="28" rx="6" fill="#fecaca" stroke="#fecaca" stroke-width="1"/>
<text font-family="Inter" font-size="14" font-weight="600" fill="#dc2626" text-anchor="middle" x="43" y="19">Remove</text>
</g>
<g transform="translate(348,712)">
<rect width="86" height="28" rx="6" fill="#fef2f2" stroke="#fecaca" stroke-width="1"/>
<text font-family="Inter" font-size="14" font-weight="600" fill="#f87171" text-anchor="middle" x="43" y="19">Remove</text>
</g>
<g transform="translate(454,712)">
<rect width="86" height="28" rx="6" fill="#fef2f2" stroke="#fecaca" stroke-width="1" opacity="0.8"/>
<circle cx="43" cy="14" r="7" fill="none" stroke="rgba(255,255,255,0.3)" stroke-width="2"/>
<path d="M43,7 A7,7 0 0,1 50,14" fill="none" stroke="#dc2626" stroke-width="2" stroke-linecap="round"/>
</g>

<text class="sh" x="0" y="770">md</text>
<g transform="translate(30,752)">
<rect width="102" height="36" rx="6" fill="#fef2f2" stroke="#fecaca" stroke-width="1"/>
<text font-family="Inter" font-size="14" font-weight="600" fill="#dc2626" text-anchor="middle" x="51" y="23">Remove</text>
</g>
<g transform="translate(152,752)">
<rect width="102" height="36" rx="6" fill="#fee2e2" stroke="#fecaca" stroke-width="1"/>
<text font-family="Inter" font-size="14" font-weight="600" fill="#dc2626" text-anchor="middle" x="51" y="23">Remove</text>
</g>
<g transform="translate(274,752)">
<rect width="102" height="36" rx="6" fill="#fecaca" stroke="#fecaca" stroke-width="1"/>
<text font-family="Inter" font-size="14" font-weight="600" fill="#dc2626" text-anchor="middle" x="51" y="23">Remove</text>
</g>
<g transform="translate(396,752)">
<rect width="102" height="36" rx="6" fill="#fef2f2" stroke="#fecaca" stroke-width="1"/>
<text font-family="Inter" font-size="14" font-weight="600" fill="#f87171" text-anchor="middle" x="51" y="23">Remove</text>
</g>
<g transform="translate(518,752)">
<rect width="102" height="36" rx="6" fill="#fef2f2" stroke="#fecaca" stroke-width="1" opacity="0.8"/>
<circle cx="51" cy="18" r="7" fill="none" stroke="rgba(255,255,255,0.3)" stroke-width="2"/>
<path d="M51,11 A7,7 0 0,1 58,18" fill="none" stroke="#dc2626" stroke-width="2" stroke-linecap="round"/>
</g>

<!-- ======== ICON ======== -->
<text class="gl" y="824">Icon</text>
<text class="desc" x="0" y="842">padding: 4px 6px · transparent bg · no border</text>

<g transform="translate(30,856)">
<rect width="28" height="28" rx="6" fill="transparent"/>
<text font-family="Inter" font-size="16" fill="#4185DE" text-anchor="middle" x="14" y="20">⋯</text>
</g>
<text class="sh" x="30" y="898">default</text>
<g transform="translate(78,856)">
<rect width="28" height="28" rx="6" fill="#ecf3fc"/>
<text font-family="Inter" font-size="16" fill="#4185DE" text-anchor="middle" x="14" y="20">⋯</text>
</g>
<text class="sh" x="78" y="898">hover</text>
<g transform="translate(126,856)">
<rect width="28" height="28" rx="6" fill="#c1d8f5"/>
<text font-family="Inter" font-size="16" fill="#4185DE" text-anchor="middle" x="14" y="20">⋯</text>
</g>
<text class="sh" x="126" y="898">active</text>
<g transform="translate(174,856)">
<rect width="28" height="28" rx="6" fill="transparent"/>
<text font-family="Inter" font-size="16" fill="#9CA3AF" text-anchor="middle" x="14" y="20">⋯</text>
</g>
<text class="sh" x="174" y="898">disabled</text>

<!-- ======== LINK ======== -->
<text class="gl" y="934">Link</text>
<text class="desc" x="0" y="952">padding: 4px 8px · font-weight: 500</text>

<g transform="translate(30,966)">
<rect width="70" height="28" rx="6" fill="transparent"/>
<text font-family="Inter" font-size="14" font-weight="500" fill="#4185DE" text-anchor="middle" x="35" y="19">Learn more</text>
</g>
<text class="sh" x="30" y="1008">default</text>
<g transform="translate(120,966)">
<rect width="70" height="28" rx="6" fill="#ecf3fc"/>
<text font-family="Inter" font-size="14" font-weight="500" fill="#0951ae" text-anchor="middle" x="35" y="19">Learn more</text>
</g>
<text class="sh" x="120" y="1008">hover</text>
<g transform="translate(210,966)">
<rect width="70" height="28" rx="6" fill="#c1d8f5"/>
<text font-family="Inter" font-size="14" font-weight="500" fill="#4185DE" text-anchor="middle" x="35" y="19">Learn more</text>
</g>
<text class="sh" x="210" y="1008">active</text>
<g transform="translate(300,966)">
<rect width="70" height="28" rx="6" fill="transparent"/>
<text font-family="Inter" font-size="14" font-weight="500" fill="#9CA3AF" text-anchor="middle" x="35" y="19">Learn more</text>
</g>
<text class="sh" x="300" y="1008">disabled</text>
</g>

<!-- ============================================================ -->
<!-- STEP 5 — Inpt                                                 -->
<!-- ============================================================ -->
<g id="step-05-inpt" transform="translate(830,60)">
<text class="st" y="20">Step 5 — Inpt</text>
<text class="desc" y="40">4 states · padding: 10px · border-radius: 6px · label: 13px/600</text>

<!-- Default -->
<text class="gl" y="76">Default</text>
<g transform="translate(0,90)">
<text font-family="Inter" font-size="13" font-weight="600" fill="#374151" y="0">Email</text>
<rect y="10" width="240" height="38" rx="6" fill="#FFFFFF" stroke="#D1D5DB" stroke-width="1"/>
<text font-family="Inter" font-size="16" font-weight="400" fill="#D1D5DB" x="10" y="35">you@example.com</text>
</g>

<!-- Focused -->
<text class="gl" y="170">Focused</text>
<g transform="translate(0,184)">
<text font-family="Inter" font-size="13" font-weight="600" fill="#374151" y="0">Email</text>
<!-- focus ring -->
<rect y="9" width="242" height="40" rx="7" x="-1" fill="none" stroke="rgba(65,133,222,0.2)" stroke-width="2"/>
<rect y="10" width="240" height="38" rx="6" fill="#FFFFFF" stroke="#4185DE" stroke-width="1"/>
<text font-family="Inter" font-size="16" font-weight="400" fill="#374151" x="10" y="35">john@example.com</text>
</g>

<!-- Error -->
<text class="gl" y="266">Error</text>
<g transform="translate(0,280)">
<text font-family="Inter" font-size="13" font-weight="600" fill="#374151" y="0">Email</text>
<rect y="10" width="240" height="38" rx="6" fill="#fef2f2" stroke="#f9c6c6" stroke-width="1"/>
<text font-family="Inter" font-size="16" font-weight="400" fill="#374151" x="10" y="35">bad-email</text>
<text font-family="Inter" font-size="11" font-weight="400" fill="#7f1c1d" y="62">Invalid email address</text>
</g>

<!-- Disabled -->
<text class="gl" y="384">Disabled</text>
<g transform="translate(0,398)">
<text font-family="Inter" font-size="13" font-weight="600" fill="#374151" y="0" opacity="0.6">Email</text>
<rect y="10" width="240" height="38" rx="6" fill="#FFFFFF" stroke="#D1D5DB" stroke-width="1" opacity="0.6"/>
<text font-family="Inter" font-size="16" font-weight="400" fill="#D1D5DB" x="10" y="35" opacity="0.6">you@example.com</text>
</g>

<!-- With footer -->
<text class="gl" y="484">With Footer</text>
<g transform="translate(0,498)">
<text font-family="Inter" font-size="13" font-weight="600" fill="#374151" y="0">Password</text>
<rect y="10" width="240" height="38" rx="6" fill="#FFFFFF" stroke="#D1D5DB" stroke-width="1"/>
<text font-family="Inter" font-size="16" font-weight="400" fill="#374151" x="10" y="35">••••••••</text>
<text font-family="Inter" font-size="11" font-weight="400" fill="#374151" y="62">Must be at least 8 characters</text>
</g>
</g>

<!-- ============================================================ -->
<!-- STEP 6 — Select                                               -->
<!-- ============================================================ -->
<g id="step-06-select" transform="translate(1160,60)">
<text class="st" y="20">Step 6 — Select</text>
<text class="desc" y="40">Closed trigger + open dropdown · border-radius: 6px/8px</text>

<!-- Closed state -->
<text class="gl" y="76">Closed</text>
<g transform="translate(0,90)">
<rect width="160" height="34" rx="6" fill="#FFFFFF" stroke="#E3E8EF" stroke-width="1"/>
<text font-family="Inter" font-size="16" font-weight="400" fill="#374151" x="12" y="22">Next Actions</text>
<text font-family="Inter" font-size="12" fill="#9CA3AF" x="138" y="22">▾</text>
</g>

<!-- Hover state -->
<text class="gl" y="158">Hover</text>
<g transform="translate(0,172)">
<rect width="160" height="34" rx="6" fill="#FFFFFF" stroke="#dddddd" stroke-width="1"/>
<text font-family="Inter" font-size="16" font-weight="400" fill="#374151" x="12" y="22">Next Actions</text>
<text font-family="Inter" font-size="12" fill="#9CA3AF" x="138" y="22">▾</text>
</g>

<!-- Open state -->
<text class="gl" y="240">Open</text>
<g transform="translate(0,254)">
<!-- trigger open -->
<rect width="160" height="34" rx="6" fill="#FFFFFF" stroke="#4185DE" stroke-width="1"/>
<text font-family="Inter" font-size="16" font-weight="400" fill="#374151" x="12" y="22">Next Actions</text>
<text font-family="Inter" font-size="12" fill="#9CA3AF" x="138" y="22" transform="rotate(180,143,18)">▾</text>
<!-- dropdown -->
<g transform="translate(0,38)">
<rect width="160" height="114" rx="8" fill="#FFFFFF" stroke="#E3E8EF" stroke-width="1" filter="url(#shadow-dropdown)"/>
<!-- option 1 - selected -->
<rect y="1" width="158" height="38" rx="7" x="1" fill="#F3F4F6"/>
<text font-family="Inter" font-size="16" font-weight="500" fill="#4185DE" x="14" y="27">Next Actions</text>
<!-- option 2 -->
<text font-family="Inter" font-size="16" font-weight="400" fill="#374151" x="14" y="65">Projects</text>
<!-- option 3 -->
<text font-family="Inter" font-size="16" font-weight="400" fill="#374151" x="14" y="103">Someday</text>
</g>
</g>
</g>

<!-- ============================================================ -->
<!-- STEP 7 — TagInput                                             -->
<!-- ============================================================ -->
<g id="step-07-taginput" transform="translate(1430,60)">
<text class="st" y="20">Step 7 — TagInput</text>
<text class="desc" y="40">Container with chips + input + suggestions + presets</text>

<!-- Default with tags -->
<text class="gl" y="76">Default (with tags)</text>
<g transform="translate(0,90)">
<!-- container -->
<rect width="300" height="38" rx="6" fill="#FFFFFF" stroke="#D1D5DB" stroke-width="1"/>
<!-- tag chips -->
<g transform="translate(6,8)">
<rect width="56" height="22" rx="4" fill="#F3F4F6" stroke="#E3E8EF" stroke-width="1"/>
<text font-family="Inter" font-size="14" font-weight="400" fill="#374151" x="6" y="16">work</text>
<text font-family="Inter" font-size="14" fill="#9CA3AF" x="42" y="16">×</text>
</g>
<g transform="translate(70,8)">
<rect width="66" height="22" rx="4" fill="#F3F4F6" stroke="#E3E8EF" stroke-width="1"/>
<text font-family="Inter" font-size="14" font-weight="400" fill="#374151" x="6" y="16">urgent</text>
<text font-family="Inter" font-size="14" fill="#9CA3AF" x="52" y="16">×</text>
</g>
<g transform="translate(144,8)">
<rect width="52" height="22" rx="4" fill="#F3F4F6" stroke="#E3E8EF" stroke-width="1"/>
<text font-family="Inter" font-size="14" font-weight="400" fill="#374151" x="6" y="16">api</text>
<text font-family="Inter" font-size="14" fill="#9CA3AF" x="38" y="16">×</text>
</g>
<!-- input area -->
<text font-family="Inter" font-size="16" font-weight="400" fill="#D1D5DB" x="204" y="25">|</text>
</g>

<!-- Focused with suggestions -->
<text class="gl" y="164">Focused (with suggestions)</text>
<g transform="translate(0,178)">
<!-- container focused -->
<rect x="-1" y="-1" width="302" height="40" rx="7" fill="none" stroke="rgba(65,133,222,0.2)" stroke-width="2"/>
<rect width="300" height="38" rx="6" fill="#FFFFFF" stroke="#4185DE" stroke-width="1"/>
<!-- tag chips -->
<g transform="translate(6,8)">
<rect width="56" height="22" rx="4" fill="#F3F4F6" stroke="#E3E8EF" stroke-width="1"/>
<text font-family="Inter" font-size="14" font-weight="400" fill="#374151" x="6" y="16">work</text>
<text font-family="Inter" font-size="14" fill="#9CA3AF" x="42" y="16">×</text>
</g>
<!-- typing -->
<text font-family="Inter" font-size="16" font-weight="400" fill="#374151" x="70" y="25">bu</text>
<!-- suggestions dropdown -->
<g transform="translate(0,42)">
<rect width="300" height="72" rx="6" fill="#FFFFFF" stroke="#E3E8EF" stroke-width="1" filter="url(#shadow-dropdown)"/>
<rect y="1" width="298" height="34" rx="5" x="1" fill="#F3F4F6"/>
<text font-family="Inter" font-size="16" font-weight="400" fill="#374151" x="12" y="24">bug</text>
<text font-family="Inter" font-size="16" font-weight="400" fill="#374151" x="12" y="60">budget</text>
</g>
</g>

<!-- Presets -->
<text class="gl" y="330">Presets (below container)</text>
<g transform="translate(0,344)">
<!-- container -->
<rect width="300" height="38" rx="6" fill="#FFFFFF" stroke="#D1D5DB" stroke-width="1"/>
<text font-family="Inter" font-size="16" font-weight="400" fill="#D1D5DB" x="10" y="25">Add tags...</text>
<!-- preset chips -->
<g transform="translate(0,46)">
<rect width="72" height="22" rx="4" fill="none" stroke="#E3E8EF" stroke-width="1" stroke-dasharray="3,2"/>
<text font-family="Inter" font-size="14" font-weight="400" fill="#9CA3AF" x="6" y="16">+ work</text>
<g transform="translate(80,0)">
<rect width="82" height="22" rx="4" fill="none" stroke="#E3E8EF" stroke-width="1" stroke-dasharray="3,2"/>
<text font-family="Inter" font-size="14" font-weight="400" fill="#9CA3AF" x="6" y="16">+ urgent</text>
</g>
<g transform="translate(170,0)">
<rect width="68" height="22" rx="4" fill="none" stroke="#E3E8EF" stroke-width="1" stroke-dasharray="3,2"/>
<text font-family="Inter" font-size="14" font-weight="400" fill="#9CA3AF" x="6" y="16">+ home</text>
</g>
</g>
</g>

<!-- Disabled -->
<text class="gl" y="444">Disabled</text>
<g transform="translate(0,458)">
<rect width="300" height="38" rx="6" fill="#FFFFFF" stroke="#D1D5DB" stroke-width="1" opacity="0.6"/>
<g transform="translate(6,8)" opacity="0.6">
<rect width="56" height="22" rx="4" fill="#F3F4F6" stroke="#E3E8EF" stroke-width="1"/>
<text font-family="Inter" font-size="14" font-weight="400" fill="#374151" x="6" y="16">work</text>
</g>
</g>
</g>

<!-- ============================================================ -->
<!-- STEP 8 — SegmentSwitch                                        -->
<!-- ============================================================ -->
<g id="step-08-segmentswitch" transform="translate(100,1140)">
<text class="st" y="20">Step 8 — SegmentSwitch</text>
<text class="desc" y="40">Inline toggle · border-radius: 8px outer, 6px inner · font: 14px/500</text>

<!-- 2 options -->
<text class="gl" y="76">2 Options</text>
<g transform="translate(0,90)">
<!-- outer container -->
<rect width="200" height="34" rx="8" fill="#FFFFFF" stroke="#E3E8EF" stroke-width="1"/>
<!-- active option (left) -->
<rect x="2" y="2" width="98" height="30" rx="6" fill="#ecf3fc"/>
<text font-family="Inter" font-size="14" font-weight="600" fill="#4185DE" text-anchor="middle" x="51" y="22">List</text>
<!-- inactive option (right) -->
<text font-family="Inter" font-size="14" font-weight="500" fill="#9CA3AF" text-anchor="middle" x="149" y="22">Grid</text>
</g>

<!-- 3 options -->
<text class="gl" y="160">3 Options</text>
<g transform="translate(0,174)">
<rect width="300" height="34" rx="8" fill="#FFFFFF" stroke="#E3E8EF" stroke-width="1"/>
<!-- inactive -->
<text font-family="Inter" font-size="14" font-weight="500" fill="#9CA3AF" text-anchor="middle" x="50" y="22">All</text>
<!-- active (middle) -->
<rect x="101" y="2" width="98" height="30" rx="6" fill="#ecf3fc"/>
<text font-family="Inter" font-size="14" font-weight="600" fill="#4185DE" text-anchor="middle" x="150" y="22">Active</text>
<!-- inactive -->
<text font-family="Inter" font-size="14" font-weight="500" fill="#9CA3AF" text-anchor="middle" x="250" y="22">Done</text>
</g>

<!-- Hover on inactive -->
<text class="gl" y="244">Hover on Inactive</text>
<g transform="translate(0,258)">
<rect width="200" height="34" rx="8" fill="#FFFFFF" stroke="#E3E8EF" stroke-width="1"/>
<!-- active (left) -->
<rect x="2" y="2" width="98" height="30" rx="6" fill="#ecf3fc"/>
<text font-family="Inter" font-size="14" font-weight="600" fill="#4185DE" text-anchor="middle" x="51" y="22">List</text>
<!-- hovered inactive (right) -->
<rect x="100" y="2" width="98" height="30" rx="6" fill="#E5E7EB"/>
<text font-family="Inter" font-size="14" font-weight="500" fill="#6B7280" text-anchor="middle" x="149" y="22">Grid</text>
</g>
</g>

<!-- ============================================================ -->
<!-- STEP 9 — Checkbox                                             -->
<!-- ============================================================ -->
<g id="step-09-checkbox" transform="translate(500,1140)">
<text class="st" y="20">Step 9 — Checkbox</text>
<text class="desc" y="40">18×18 · border-radius: 4px · accent: #4185DE</text>

<!-- Unchecked -->
<text class="gl" y="76">Unchecked</text>
<g transform="translate(0,90)">
<rect width="18" height="18" rx="4" fill="#FFFFFF" stroke="#D1D5DB" stroke-width="1.5"/>
<text font-family="Inter" font-size="14" font-weight="400" fill="#374151" x="26" y="14">Task item label</text>
</g>

<!-- Checked -->
<text class="gl" y="136">Checked</text>
<g transform="translate(0,150)">
<rect width="18" height="18" rx="4" fill="#4185DE"/>
<!-- checkmark -->
<polyline points="4,9 8,13 14,5" fill="none" stroke="#FFFFFF" stroke-width="2" stroke-linecap="round" stroke-linejoin="round"/>
<text font-family="Inter" font-size="14" font-weight="400" fill="#374151" x="26" y="14" text-decoration="line-through">Completed task</text>
</g>

<!-- Hover (unchecked) -->
<text class="gl" y="196">Hover (unchecked)</text>
<g transform="translate(0,210)">
<rect width="18" height="18" rx="4" fill="#FFFFFF" stroke="#4185DE" stroke-width="1.5"/>
<text font-family="Inter" font-size="14" font-weight="400" fill="#374151" x="26" y="14">Hovering over this</text>
</g>

<!-- Disabled -->
<text class="gl" y="256">Disabled</text>
<g transform="translate(0,270)">
<rect width="18" height="18" rx="4" fill="#F3F4F6" stroke="#D1D5DB" stroke-width="1.5" opacity="0.6"/>
<text font-family="Inter" font-size="14" font-weight="400" fill="#9CA3AF" x="26" y="14">Disabled item</text>
</g>

<!-- Disabled checked -->
<text class="gl" y="316">Disabled Checked</text>
<g transform="translate(0,330)">
<rect width="18" height="18" rx="4" fill="#acbfd7"/>
<polyline points="4,9 8,13 14,5" fill="none" stroke="#FFFFFF" stroke-width="2" stroke-linecap="round" stroke-linejoin="round"/>
<text font-family="Inter" font-size="14" font-weight="400" fill="#9CA3AF" x="26" y="14" text-decoration="line-through">Disabled done</text>
</g>
</g>

</svg>