<svg xmlns="http://www.w3.org/2000/svg" viewBox="0 0 1640 1360">
<defs>
  <filter id="shadow-popover" x="-20%" y="-10%" width="140%" height="150%">
    <feDropShadow dx="0" dy="4" stdDeviation="5" flood-color="rgb(0,0,0)" flood-opacity="0.1"/>
  </filter>

  <!-- Icon Symbols -->
  <symbol id="ico-app" viewBox="0 0 64 64">
    <path d="M27 52L31 35H20L37 12L33 29H44L27 52Z" fill="#4185DE"/>
  </symbol>

  <symbol id="ico-engage" viewBox="0 0 96 96">
    <path d="M8.89 4C6.2 4 4 6.2 4 8.89L4 48C4 50.69 6.2 52.89 8.89 52.89L38.22 52.89C40.91 52.89 43.11 50.69 43.11 48L43.11 8.89C43.11 6.2 40.91 4 38.22 4L8.89 4ZM33.33 13.78L13.78 13.78L13.78 43.11L33.33 43.11L33.33 13.78ZM8.89 62.67C6.2 62.67 4 64.87 4 67.56L4 87.11C4 89.8 6.2 92 8.89 92L38.22 92C40.91 92 43.11 89.8 43.11 87.11L43.11 67.56C43.11 64.87 40.91 62.67 38.22 62.67L8.89 62.67ZM33.33 72.44L13.78 72.44L13.78 82.22L33.33 82.22L33.33 72.44ZM57.78 4C55.09 4 52.89 6.2 52.89 8.89L52.89 28.44C52.89 31.13 55.09 33.33 57.78 33.33L87.11 33.33C89.8 33.33 92 31.13 92 28.44L92 8.89C92 6.2 89.8 4 87.11 4L57.78 4ZM82.22 13.78L62.67 13.78L62.67 23.56L82.22 23.56L82.22 13.78ZM57.78 43.11C55.09 43.11 52.89 45.31 52.89 48L52.89 87.11C52.89 89.8 55.09 92 57.78 92L87.11 92C89.8 92 92 89.8 92 87.11L92 48C92 45.31 89.8 43.11 87.11 43.11L57.78 43.11ZM82.22 52.89L62.67 52.89L62.67 82.22L82.22 82.22L82.22 52.89Z"/>
  </symbol>

  <symbol id="ico-next" viewBox="0 0 96 96">
    <path d="M37 92L45.8 54.6L21.6 54.6L59 4L50.2 41.4L74.4 41.4L37 92Z"/>
  </symbol>

  <symbol id="ico-today" viewBox="0 0 96 96">
    <path fill="none" stroke-width="6.77" d="M48 17.54L48 7.38M48 88.62L48 78.46M78.46 48L88.62 48M7.38 48L17.54 48M69.49 26.51L76.77 19.23M19.23 76.77L26.51 69.49M69.49 69.49L76.77 76.77M19.23 19.23L26.51 26.51M48 34.46C55.45 34.46 61.54 40.55 61.54 48C61.54 55.45 55.45 61.54 48 61.54C40.55 61.54 34.46 55.45 34.46 48C34.46 40.55 40.55 34.46 48 34.46Z"/>
  </symbol>

  <symbol id="ico-inbox" viewBox="0 0 96 96">
    <path d="M13.78 92C11.09 92 8.79 91.02 6.88 89.12C4.98 87.21 4 84.91 4 82.22L4 13.78C4 11.09 4.98 8.79 6.88 6.88C8.79 4.98 11.09 4 13.78 4L82.22 4C84.91 4 87.21 4.98 89.12 6.88C91.02 8.79 92 11.09 92 13.78L92 62.67L62.67 92L13.78 92ZM13.78 82.22L52.89 82.22L52.89 62.67C52.89 59.98 53.87 57.68 55.77 55.77C57.68 53.87 59.98 52.89 62.67 52.89L82.22 52.89L82.22 13.78L13.78 13.78L13.78 82.22ZM62.67 82.22L82.22 62.67L62.67 62.67L62.67 82.22Z"/>
  </symbol>

  <symbol id="ico-projects" viewBox="0 0 96 96">
    <path d="M12.8 83.2C10.38 83.2 8.31 82.34 6.58 80.61C4.86 78.89 4 76.82 4 74.4L4 21.6C4 19.18 4.86 17.11 6.58 15.38C8.31 13.66 10.38 12.8 12.8 12.8L39.2 12.8L48 21.6L83.2 21.6C85.62 21.6 87.69 22.46 89.42 24.18C91.14 25.91 92 27.98 92 30.4L92 74.4C92 76.82 91.14 78.89 89.42 80.61C87.69 82.34 85.62 83.2 83.2 83.2L12.8 83.2ZM12.8 74.4L83.2 74.4L83.2 30.4L44.37 30.4L35.57 21.6L12.8 21.6L12.8 74.4Z"/>
  </symbol>

  <symbol id="ico-calendar" viewBox="0 0 96 96">
    <path d="M17.2 92C14.78 92 12.71 91.12 11 89.4C9.28 87.69 8.4 85.62 8.4 83.2L8.4 21.6C8.4 19.18 9.28 17.11 11 15.4C12.71 13.68 14.78 12.8 17.2 12.8L21.6 12.8L21.6 4L30.4 4L30.4 12.8L65.6 12.8L65.6 4L74.4 4L74.4 12.8L78.8 12.8C81.22 12.8 83.29 13.68 85 15.4C86.72 17.11 87.6 19.18 87.6 21.6L87.6 83.2C87.6 85.62 86.72 87.69 85 89.4C83.29 91.12 81.22 92 78.8 92L17.2 92ZM17.2 83.2L78.8 83.2L78.8 39.2L17.2 39.2L17.2 83.2Z"/>
  </symbol>

  <symbol id="ico-waiting" viewBox="0 0 96 96">
    <path d="M48 4C23.56 4 4 23.56 4 48C4 72.44 23.56 92 48 92C72.44 92 92 72.44 92 48C92 23.56 72.44 4 48 4ZM48 82.22C28.44 82.22 13.78 67.56 13.78 48C13.78 28.44 28.44 13.78 48 13.78C67.56 13.78 82.22 28.44 82.22 48C82.22 67.56 67.56 82.22 48 82.22ZM50.44 26L43.11 26L43.11 52.89L65.11 67.56L70 60.22L50.44 48L50.44 26Z"/>
  </symbol>

  <symbol id="ico-someday" viewBox="0 0 96 96">
    <path d="M24.71 78.28C19.01 78.28 14.15 76.25 10.11 72.21C6.07 68.17 4 63.27 4 57.58C4 52.57 5.59 48.16 8.73 44.29C11.87 40.43 15.91 38.08 20.74 37.22C22.46 31.18 25.84 26.31 30.88 22.58C35.92 18.89 41.55 17.03 47.83 17.03C55.59 17.03 62.15 19.79 67.5 25.14C72.85 30.49 75.61 37.04 75.61 44.81L75.61 47.22C80.27 47.4 84.17 49.05 87.27 52.16C90.38 55.26 92 59.13 92 63.79C92 67.93 90.38 71.52 87.17 74.49C83.96 77.49 80.09 78.97 75.61 78.97L24.71 78.28ZM24.71 71.38L75.61 71.38C78.02 71.38 80.06 70.55 81.75 68.86C83.41 67.2 84.24 65.17 84.24 62.75C84.24 60.34 83.41 58.3 81.75 56.64C80.06 54.95 78.02 54.13 75.61 54.13L67.84 54.13L67.84 44.81C67.84 39.29 65.91 34.56 62.08 30.66C58.25 26.76 53.52 24.79 47.83 24.79C42.13 24.79 37.37 26.76 33.51 30.66C29.64 34.56 27.71 39.29 27.71 44.81L24.71 44.81C21.08 44.81 18.01 46.08 15.53 48.57C13.01 51.05 11.76 54.13 11.76 57.58C11.76 61.2 13.01 64.27 15.53 66.76C18.01 69.28 21.08 70.52 24.71 70.52Z"/>
  </symbol>

  <symbol id="ico-reference" viewBox="0 0 96 96">
    <path d="M18.67 92L18.67 12.38C18.67 10.08 19.5 8.11 21.14 6.47C22.77 4.84 24.74 4 27.05 4L68.95 4C71.26 4 73.23 4.84 74.86 6.47C76.5 8.11 77.33 10.08 77.33 12.38L77.33 92L48 77.33L18.67 92ZM27.05 78.8L48 68.32L68.95 78.8L68.95 12.38L27.05 12.38L27.05 78.8Z"/>
  </symbol>

  <symbol id="ico-review" viewBox="0 0 96 96">
    <path d="M31.08 78.46L64.92 78.46L64.92 71.69L31.08 71.69L31.08 78.46ZM31.08 64.92L64.92 64.92L64.92 58.15L31.08 58.15L31.08 64.92ZM24.31 92C22.45 92 20.86 91.32 19.54 90C18.22 88.68 17.54 87.09 17.54 85.23L17.54 17.54C17.54 15.68 18.22 14.09 19.54 12.77C20.86 11.45 22.45 10.77 24.31 10.77L38.46 10.77C39.03 8.81 40.15 7.18 41.84 5.9C43.53 4.61 45.46 4 47.66 4L48.34 4C50.54 4 52.47 4.61 54.16 5.9C55.85 7.18 56.97 8.81 57.54 10.77L71.69 10.77C73.55 10.77 75.14 11.45 76.46 12.77C77.78 14.09 78.46 15.68 78.46 17.54L78.46 85.23C78.46 87.09 77.78 88.68 76.46 90C75.14 91.32 73.55 92 71.69 92L24.31 92ZM24.31 85.23L71.69 85.23L71.69 17.54L64.92 17.54L64.92 24.31L31.08 24.31L31.08 17.54L24.31 17.54L24.31 85.23ZM37.85 24.31L58.15 24.31L58.15 17.54L37.85 17.54L37.85 24.31Z"/>
  </symbol>

  <symbol id="ico-completed" viewBox="0 0 96 96">
    <path d="M36.72 81.55L4 48.83L15.82 37L36.72 57.9L80.18 14.45L92 26.27L36.72 81.55Z"/>
  </symbol>

  <symbol id="ico-trash" viewBox="0 0 96 96">
    <path d="M22.53 92C20.67 92 19.05 91.31 17.66 89.92C16.27 88.53 15.58 86.91 15.58 85.05L15.58 17.89L10.95 17.89L10.95 8.63L34.11 8.63L34.11 4L61.89 4L61.89 8.63L85.05 8.63L85.05 17.89L80.42 17.89L80.42 85.05C80.42 86.91 79.73 88.53 78.34 89.92C76.95 91.31 75.33 92 73.47 92L22.53 92ZM71.16 17.89L24.84 17.89L24.84 82.74L71.16 82.74L71.16 17.89ZM34.11 73.47L43.37 73.47L43.37 27.16L34.11 27.16L34.11 73.47ZM52.63 73.47L61.89 73.47L61.89 27.16L52.63 27.16L52.63 73.47Z"/>
  </symbol>

  <symbol id="ico-settings" viewBox="0 0 96 96">
    <path d="M35.96 91.78L34.21 77.77C33.26 77.41 32.37 76.97 31.53 76.46C30.69 75.95 29.87 75.4 29.06 74.82L16.04 80.29L4 59.49L15.27 50.96C15.2 50.44 15.16 49.95 15.16 49.48L15.16 46.52C15.16 46.05 15.2 45.56 15.27 45.04L4 36.51L16.04 15.71L29.06 21.18C29.87 20.6 30.71 20.05 31.58 19.54C32.46 19.03 33.33 18.59 34.21 18.23L35.96 4.22L60.04 4.22L61.79 18.23C62.74 18.59 63.63 19.03 64.47 19.54C65.31 20.05 66.13 20.6 66.94 21.18L79.96 15.71L92 36.51L80.73 45.04C80.8 45.56 80.84 46.05 80.84 46.52L80.84 49.48C80.84 49.95 80.76 50.44 80.62 50.96L91.89 59.49L79.85 80.29L66.94 74.82C66.13 75.4 65.29 75.95 64.42 76.46C63.54 76.97 62.67 77.41 61.79 77.77L60.04 91.78L35.96 91.78ZM43.62 83.02L52.27 83.02L53.8 71.42C56.06 70.84 58.16 69.98 60.09 68.85C62.03 67.72 63.8 66.35 65.4 64.75L76.24 69.23L80.51 61.79L71.09 54.68C71.46 53.66 71.71 52.58 71.86 51.45C72.01 50.32 72.08 49.17 72.08 48C72.08 46.83 72.01 45.68 71.86 44.55C71.71 43.42 71.46 42.34 71.09 41.32L80.51 34.21L76.24 26.77L65.4 31.36C63.8 29.69 62.03 28.28 60.09 27.15C58.16 26.02 56.06 25.16 53.8 24.58L52.38 12.98L43.73 12.98L42.2 24.58C39.94 25.16 37.84 26.02 35.91 27.15C33.97 28.28 32.2 29.65 30.6 31.25L19.76 26.77L15.49 34.21L24.91 41.21C24.54 42.31 24.29 43.4 24.14 44.5C23.99 45.59 23.92 46.76 23.92 48C23.92 49.17 23.99 50.3 24.14 51.39C24.29 52.49 24.54 53.58 24.91 54.68L15.49 61.79L19.76 69.23L30.6 64.64C32.2 66.31 33.97 67.72 35.91 68.85C37.84 69.98 39.94 70.84 42.2 71.42L43.62 83.02ZM48.22 63.32C52.45 63.32 56.06 61.83 59.05 58.84C62.05 55.84 63.54 52.23 63.54 48C63.54 43.77 62.05 40.16 59.05 37.16C56.06 34.17 52.45 32.68 48.22 32.68C43.91 32.68 40.28 34.17 37.33 37.16C34.37 40.16 32.9 43.77 32.9 48C32.9 52.23 34.37 55.84 37.33 58.84C40.28 61.83 43.91 63.32 48.22 63.32Z"/>
  </symbol>

  <symbol id="ico-logout" viewBox="0 0 96 96">
    <path d="M92 48L78 32L82 38L82 44L66 44L66 52L82 52L82 58L78 64ZM29.83 87.65C27.65 87.65 25.8 86.93 24.28 85.47C22.76 84.02 22 82.17 22 79.72L22 16.28C22 13.83 22.76 11.98 24.28 10.53C25.8 9.07 27.65 8.35 29.83 8.35L65.52 8.35C67.7 8.35 69.55 9.07 71.07 10.53C72.59 11.98 73.35 13.83 73.35 16.28L73.35 32.14L65.42 32.14L65.42 16.28L29.83 16.28L29.83 79.72L65.42 79.72L65.42 63.86L73.35 63.86L73.35 79.72C73.35 82.17 72.59 84.02 71.07 85.47C69.55 86.93 67.7 87.65 65.52 87.65Z"/>
  </symbol>

  <symbol id="ico-filter" viewBox="0 0 96 96">
    <rect x="4" y="15" width="88" height="11" rx="5.5"/>
    <rect x="15" y="42.5" width="66" height="11" rx="5.5"/>
    <rect x="31.5" y="70" width="33" height="11" rx="5.5"/>
  </symbol>

  <!-- Reusable Sidebar Content (without right border) -->
  <g id="sidebar-content">
    <rect width="260" height="700" fill="#FFFFFF"/>
    <!-- Nav section -->
    <g transform="translate(10,10)">
      <!-- Dashboard -->
      <g transform="translate(0,0)">
        <use href="#ico-engage" x="4" y="4" width="20" height="20" fill="#374151"/>
        <text x="40" y="14" dominant-baseline="central" font-family="Inter" font-size="16" font-weight="400" fill="#374151">Dashboard</text>
      </g>
      <!-- Context Filter -->
      <g transform="translate(0,38)">
        <use href="#ico-filter" x="4" y="4" width="20" height="20" fill="#6B7280"/>
        <text x="40" y="14" dominant-baseline="central" font-family="Inter" font-size="14" font-weight="400" font-style="italic" fill="#9CA3AF">Filter by context</text>
        <line x1="0" y1="38" x2="240" y2="38" stroke="#E3E8EF" stroke-width="1"/>
      </g>
      <!-- Next Action (ACTIVE) -->
      <g transform="translate(0,91)">
        <use href="#ico-next" x="4" y="4" width="20" height="20" fill="#4185DE"/>
        <text x="40" y="14" dominant-baseline="central" font-family="Inter" font-size="16" font-weight="600" fill="#4185DE">Next Action</text>
        <text x="240" y="14" dominant-baseline="central" text-anchor="end" font-family="Inter" font-size="11" font-weight="400" fill="#9CA3AF">12</text>
      </g>
      <!-- Today -->
      <g transform="translate(0,129)">
        <use href="#ico-today" x="4" y="4" width="20" height="20" stroke="#374151"/>
        <text x="40" y="14" dominant-baseline="central" font-family="Inter" font-size="16" font-weight="400" fill="#374151">Today</text>
        <text x="240" y="14" dominant-baseline="central" text-anchor="end" font-family="Inter" font-size="11" font-weight="400" fill="#9CA3AF">5</text>
      </g>
      <!-- Inbox -->
      <g transform="translate(0,167)">
        <use href="#ico-inbox" x="4" y="4" width="20" height="20" fill="#374151"/>
        <text x="40" y="14" dominant-baseline="central" font-family="Inter" font-size="16" font-weight="400" fill="#374151">Inbox</text>
        <text x="240" y="14" dominant-baseline="central" text-anchor="end" font-family="Inter" font-size="11" font-weight="400" fill="#9CA3AF">8</text>
      </g>
      <!-- Projects -->
      <g transform="translate(0,205)">
        <use href="#ico-projects" x="4" y="4" width="20" height="20" fill="#374151"/>
        <text x="40" y="14" dominant-baseline="central" font-family="Inter" font-size="16" font-weight="400" fill="#374151">Projects</text>
        <text x="240" y="14" dominant-baseline="central" text-anchor="end" font-family="Inter" font-size="11" font-weight="400" fill="#9CA3AF">6</text>
      </g>
      <!-- Calendar -->
      <g transform="translate(0,243)">
        <use href="#ico-calendar" x="4" y="4" width="20" height="20" fill="#374151"/>
        <text x="40" y="14" dominant-baseline="central" font-family="Inter" font-size="16" font-weight="400" fill="#374151">Calendar</text>
        <text x="240" y="14" dominant-baseline="central" text-anchor="end" font-family="Inter" font-size="11" font-weight="400" fill="#9CA3AF">3</text>
      </g>
      <!-- Waiting For -->
      <g transform="translate(0,281)">
        <use href="#ico-waiting" x="4" y="4" width="20" height="20" fill="#374151"/>
        <text x="40" y="14" dominant-baseline="central" font-family="Inter" font-size="16" font-weight="400" fill="#374151">Waiting For</text>
        <text x="240" y="14" dominant-baseline="central" text-anchor="end" font-family="Inter" font-size="11" font-weight="400" fill="#9CA3AF">4</text>
      </g>
      <!-- Someday / Maybe -->
      <g transform="translate(0,319)">
        <use href="#ico-someday" x="4" y="4" width="20" height="20" fill="#374151"/>
        <text x="40" y="14" dominant-baseline="central" font-family="Inter" font-size="16" font-weight="400" fill="#374151">Someday / Maybe</text>
        <text x="240" y="14" dominant-baseline="central" text-anchor="end" font-family="Inter" font-size="11" font-weight="400" fill="#9CA3AF">2</text>
      </g>
      <!-- Reference -->
      <g transform="translate(0,357)">
        <use href="#ico-reference" x="4" y="4" width="20" height="20" fill="#374151"/>
        <text x="40" y="14" dominant-baseline="central" font-family="Inter" font-size="16" font-weight="400" fill="#374151">Reference</text>
        <text x="240" y="14" dominant-baseline="central" text-anchor="end" font-family="Inter" font-size="11" font-weight="400" fill="#9CA3AF">1.2 MB / 50 MB</text>
      </g>
      <!-- Review -->
      <g transform="translate(0,395)">
        <use href="#ico-review" x="4" y="4" width="20" height="20" fill="#374151"/>
        <text x="40" y="14" dominant-baseline="central" font-family="Inter" font-size="16" font-weight="400" fill="#374151">Review</text>
        <text x="240" y="14" dominant-baseline="central" text-anchor="end" font-family="Inter" font-size="11" font-weight="400" fill="#ea580c">7d</text>
      </g>
      <!-- Completed -->
      <g transform="translate(0,433)">
        <use href="#ico-completed" x="4" y="4" width="20" height="20" fill="#374151"/>
        <text x="40" y="14" dominant-baseline="central" font-family="Inter" font-size="16" font-weight="400" fill="#374151">Completed</text>
        <text x="240" y="14" dominant-baseline="central" text-anchor="end" font-family="Inter" font-size="11" font-weight="400" fill="#9CA3AF">47</text>
      </g>
      <!-- Trash -->
      <g transform="translate(0,471)">
        <use href="#ico-trash" x="4" y="4" width="20" height="20" fill="#374151"/>
        <text x="40" y="14" dominant-baseline="central" font-family="Inter" font-size="16" font-weight="400" fill="#374151">Trash</text>
        <text x="240" y="14" dominant-baseline="central" text-anchor="end" font-family="Inter" font-size="11" font-weight="400" fill="#9CA3AF">3</text>
      </g>
    </g>
    <!-- Footer border -->
    <line x1="0" y1="612" x2="260" y2="612" stroke="#E3E8EF" stroke-width="1"/>
    <!-- Footer items -->
    <g transform="translate(10,622)">
      <g transform="translate(0,0)">
        <use href="#ico-settings" x="4" y="4" width="20" height="20" fill="#374151"/>
        <text x="40" y="14" dominant-baseline="central" font-family="Inter" font-size="16" font-weight="400" fill="#374151">Settings</text>
      </g>
      <g transform="translate(0,40)">
        <use href="#ico-logout" x="4" y="4" width="20" height="20" fill="#374151"/>
        <text x="40" y="14" dominant-baseline="central" font-family="Inter" font-size="16" font-weight="400" fill="#374151">Logout</text>
      </g>
    </g>
  </g>
</defs>

<!-- ============================================================ -->
<!-- Step 10 — TopNav                                              -->
<!-- ============================================================ -->
<g id="step-10-topnav" transform="translate(100,100)">
  <text font-family="Inter" font-size="20" font-weight="600" fill="#374151">Step 10 — TopNav</text>

  <!-- Label: Authenticated -->
  <text y="45" font-family="Inter" font-size="11" font-weight="400" fill="#9CA3AF">Authenticated (Dashboard)</text>

  <!-- Authenticated TopNav -->
  <g transform="translate(0,62)">
    <rect width="1440" height="48" fill="#FFFFFF"/>
    <line x1="0" y1="47.5" x2="1440" y2="47.5" stroke="#E3E8EF" stroke-width="1"/>
    <!-- Left: Logo + Brand -->
    <use href="#ico-app" x="4" y="0" width="48" height="48"/>
    <text x="58" y="24" dominant-baseline="central" font-family="Inter" font-size="24" font-weight="600" fill="#374151">WhatsNextAction</text>
    <!-- Right: QuickAddBtn + Avatar -->
    <!-- QuickAddBtn collapsed -->
    <rect x="1190" y="5.5" width="200" height="37" rx="6" fill="#ecf3fc" stroke="#E3E8EF" stroke-width="1"/>
    <text x="1208" y="24" dominant-baseline="central" font-family="Inter" font-size="16" font-weight="400" fill="#356dc0">+</text>
    <text x="1226" y="24" dominant-baseline="central" font-family="Inter" font-size="14" font-weight="400" fill="#356dc0">Quick Add</text>
    <!-- UserAvatar -->
    <circle cx="1416" cy="24" r="18" fill="#777777"/>
    <text x="1416" y="24" dominant-baseline="central" text-anchor="middle" font-family="Inter" font-size="14" font-weight="600" fill="#FFFFFF">JD</text>
  </g>

  <!-- Label: Guest / Landing -->
  <text y="155" font-family="Inter" font-size="11" font-weight="400" fill="#9CA3AF">Guest / Landing</text>

  <!-- Guest TopNav -->
  <g transform="translate(0,172)">
    <rect width="1440" height="48" fill="#FFFFFF"/>
    <line x1="0" y1="47.5" x2="1440" y2="47.5" stroke="#E3E8EF" stroke-width="1"/>
    <!-- Left: Logo + Brand -->
    <use href="#ico-app" x="4" y="0" width="48" height="48"/>
    <text x="58" y="24" dominant-baseline="central" font-family="Inter" font-size="24" font-weight="600" fill="#374151">WhatsNextAction</text>
    <!-- Center: Nav links (gap 24px) -->
    <text x="618" y="24" dominant-baseline="central" font-family="Inter" font-size="14" font-weight="400" fill="#6B7280">Why GTD</text>
    <text x="695" y="24" dominant-baseline="central" font-family="Inter" font-size="14" font-weight="400" fill="#6B7280">Features</text>
    <text x="779" y="24" dominant-baseline="central" font-family="Inter" font-size="14" font-weight="400" fill="#6B7280">Pricing</text>
    <text x="856" y="24" dominant-baseline="central" font-family="Inter" font-size="14" font-weight="400" fill="#6B7280">Help</text>
    <!-- Right: Start Here (primary md) + Sign In (ghost md) -->
    <rect x="1240" y="7" width="98" height="34" rx="6" fill="#4185DE"/>
    <text x="1289" y="24" dominant-baseline="central" text-anchor="middle" font-family="Inter" font-size="14" font-weight="600" fill="#FFFFFF">Start Here</text>
    <rect x="1348" y="7" width="78" height="34" rx="6" fill="#ecf3fc" stroke="#c6daf6" stroke-width="1"/>
    <text x="1387" y="24" dominant-baseline="central" text-anchor="middle" font-family="Inter" font-size="14" font-weight="600" fill="#356dc0">Sign In</text>
  </g>
</g>

<!-- ============================================================ -->
<!-- Step 11 — TopNavDropdown                                      -->
<!-- ============================================================ -->
<g id="step-11-topnavdropdown" transform="translate(100,520)">
  <text font-family="Inter" font-size="20" font-weight="600" fill="#374151">Step 11 — TopNavDropdown</text>

  <!-- Guest Dropdown -->
  <text y="40" font-family="Inter" font-size="11" font-weight="400" fill="#9CA3AF">Guest</text>
  <g transform="translate(0,55)">
    <rect width="160" height="247" rx="6" fill="#FFFFFF" filter="url(#shadow-popover)"/>
    <!-- Items: padding 8px top, each 33px (6+21+6), gap 4px -->
    <text x="12" y="24.5" dominant-baseline="central" font-family="Inter" font-size="14" font-weight="400" fill="#374151">Why GTD</text>
    <text x="12" y="61.5" dominant-baseline="central" font-family="Inter" font-size="14" font-weight="400" fill="#374151">Features</text>
    <text x="12" y="98.5" dominant-baseline="central" font-family="Inter" font-size="14" font-weight="400" fill="#374151">Pricing</text>
    <text x="12" y="135.5" dominant-baseline="central" font-family="Inter" font-size="14" font-weight="400" fill="#374151">Help</text>
    <!-- Divider -->
    <line x1="0" y1="160" x2="160" y2="160" stroke="#E3E8EF" stroke-width="1"/>
    <text x="12" y="185.5" dominant-baseline="central" font-family="Inter" font-size="14" font-weight="400" fill="#374151">Start Here</text>
    <text x="12" y="222.5" dominant-baseline="central" font-family="Inter" font-size="14" font-weight="400" fill="#374151">Sign In</text>
  </g>

  <!-- Authenticated Dropdown -->
  <text x="220" y="40" font-family="Inter" font-size="11" font-weight="400" fill="#9CA3AF">Authenticated</text>
  <g transform="translate(220,55)">
    <rect width="160" height="136" rx="6" fill="#FFFFFF" filter="url(#shadow-popover)"/>
    <text x="12" y="24.5" dominant-baseline="central" font-family="Inter" font-size="14" font-weight="400" fill="#374151">My Dashboard</text>
    <!-- Divider -->
    <line x1="0" y1="49" x2="160" y2="49" stroke="#E3E8EF" stroke-width="1"/>
    <text x="12" y="74.5" dominant-baseline="central" font-family="Inter" font-size="14" font-weight="400" fill="#374151">Settings</text>
    <text x="12" y="111.5" dominant-baseline="central" font-family="Inter" font-size="14" font-weight="400" fill="#374151">Logout</text>
  </g>
</g>

<!-- ============================================================ -->
<!-- Step 12 — Sidebar                                             -->
<!-- ============================================================ -->
<g id="step-12-sidebar" transform="translate(580,520)">
  <text font-family="Inter" font-size="20" font-weight="600" fill="#374151">Step 12 — Sidebar</text>
  <g transform="translate(0,35)">
    <use href="#sidebar-content"/>
    <!-- Right border (sidebar: #E3E8EF) -->
    <line x1="259.5" y1="0" x2="259.5" y2="700" stroke="#E3E8EF" stroke-width="1"/>
  </g>
</g>

<!-- ============================================================ -->
<!-- Step 13 — SidebarDrawer (Mobile)                              -->
<!-- ============================================================ -->
<g id="step-13-sidebardrawer" transform="translate(940,520)">
  <text font-family="Inter" font-size="20" font-weight="600" fill="#374151">Step 13 — SidebarDrawer (Mobile)</text>
  <g transform="translate(0,35)">
    <!-- Mobile viewport frame -->
    <rect width="375" height="700" fill="#f8fafc"/>
    <rect width="375" height="700" stroke="#E3E8EF" stroke-width="1" fill="none"/>
    <!-- Overlay -->
    <rect width="375" height="700" fill="#000000" fill-opacity="0.4"/>
    <!-- Drawer panel (open state) -->
    <use href="#sidebar-content"/>
    <!-- Drawer right border (#ddd per SidebarDrawer.vue) -->
    <line x1="259.5" y1="0" x2="259.5" y2="700" stroke="#dddddd" stroke-width="1"/>
  </g>
</g>

</svg>
