<svg xmlns="http://www.w3.org/2000/svg" viewBox="0 0 1400 1820">
<defs>
  <!-- Icon symbols (all viewBox 0 0 96 96) -->
  <symbol id="icon-warning" viewBox="0 0 96 96">
    <path fill="currentColor" d="M48 10L4 86L92 86L48 10ZM48 23L79 80L17 80L48 23ZM44 42L44 62L52 62L52 42L44 42ZM44 70L44 78L52 78L52 70L44 70Z"/>
  </symbol>
  <symbol id="icon-recurring" viewBox="0 0 96 96">
    <path fill="none" stroke="currentColor" stroke-width="6.77" stroke-linecap="round" stroke-linejoin="round" d="M70.56 7.38L84.1 20.92L70.56 34.46"/>
    <path fill="none" stroke="currentColor" stroke-width="6.77" stroke-linecap="round" stroke-linejoin="round" d="M7.38 34.46L7.38 29.95A13.54 13.54 0 0 1 20.92 16.41L84.1 16.41"/>
    <path fill="none" stroke="currentColor" stroke-width="6.77" stroke-linecap="round" stroke-linejoin="round" d="M25.44 88.62L11.9 75.08L25.44 61.54"/>
    <path fill="none" stroke="currentColor" stroke-width="6.77" stroke-linecap="round" stroke-linejoin="round" d="M88.62 61.54L88.62 66.05A13.54 13.54 0 0 1 75.08 79.59L11.9 79.59"/>
  </symbol>
  <symbol id="icon-hourglass" viewBox="0 0 96 96">
    <path fill="currentColor" d="M21.6 4L21.6 30.4L21.64 30.4L21.6 30.44L39.2 48L21.6 65.6L21.64 65.64L21.6 65.64L21.6 92L74.4 92L74.4 65.64L74.36 65.64L74.4 65.6L56.8 48L74.4 30.44L74.36 30.4L74.4 30.4L74.4 4L21.6 4ZM65.6 67.8L65.6 83.2L30.4 83.2L30.4 67.8L48 50.2L65.6 67.8ZM48 45.8L30.4 28.2L30.4 12.8L65.6 12.8L65.6 28.2L48 45.8Z"/>
  </symbol>
  <symbol id="icon-calendar" viewBox="0 0 96 96">
    <path fill="currentColor" d="M17.2 92C14.78 92 12.71 91.12 11 89.4C9.28 87.69 8.4 85.62 8.4 83.2L8.4 21.6C8.4 19.18 9.28 17.11 11 15.4C12.71 13.68 14.78 12.8 17.2 12.8L21.6 12.8L21.6 4L30.4 4L30.4 12.8L65.6 12.8L65.6 4L74.4 4L74.4 12.8L78.8 12.8C81.22 12.8 83.29 13.68 85 15.4C86.72 17.11 87.6 19.18 87.6 21.6L87.6 83.2C87.6 85.62 86.72 87.69 85 89.4C83.29 91.12 81.22 92 78.8 92L17.2 92ZM17.2 83.2L78.8 83.2L78.8 39.2L17.2 39.2L17.2 83.2Z"/>
  </symbol>
  <symbol id="icon-projects" viewBox="0 0 96 96">
    <path fill="currentColor" d="M12.8 83.2C10.38 83.2 8.31 82.34 6.58 80.61C4.86 78.89 4 76.82 4 74.4L4 21.6C4 19.18 4.86 17.11 6.58 15.38C8.31 13.66 10.38 12.8 12.8 12.8L39.2 12.8L48 21.6L83.2 21.6C85.62 21.6 87.69 22.46 89.42 24.18C91.14 25.91 92 27.98 92 30.4L92 74.4C92 76.82 91.14 78.89 89.42 80.61C87.69 82.34 85.62 83.2 83.2 83.2L12.8 83.2ZM12.8 74.4L83.2 74.4L83.2 30.4L44.37 30.4L35.57 21.6L12.8 21.6L12.8 74.4Z"/>
  </symbol>
  <symbol id="icon-attachment" viewBox="0 0 96 96">
    <path fill="currentColor" d="M48.45 92C40.77 92 34.13 89.3 28.59 83.88C23.02 78.46 20.24 71.94 20.24 64.25L20.24 23.28C20.24 17.98 22.12 13.42 25.89 9.65C29.66 5.88 34.24 4 39.55 4C44.88 4 49.41 5.88 53.18 9.65C56.94 13.42 58.83 17.98 58.83 23.28L58.83 61.56L53.03 61.56L53.03 23.28C53.03 19.57 51.73 16.41 49.12 13.8C46.51 11.19 43.32 9.8 39.55 9.8C35.84 9.8 32.68 11.19 30.07 13.8C27.46 16.41 26.04 19.57 26.04 23.28L26.04 64.25C26.04 70.31 28.15 75.47 32.36 79.74C36.56 83.97 41.78 86.11 47.96 86.11C54.1 86.11 59.32 83.97 63.58 79.74C67.82 75.47 69.96 70.31 69.96 64.25L69.96 23.28L75.76 23.28L75.76 64.25C75.76 71.94 73.01 78.46 67.5 83.88C61.99 89.3 55.41 92 48.45 92Z"/>
  </symbol>
  <symbol id="icon-comment" viewBox="0 0 96 96">
    <path fill="currentColor" d="M48 6.75C23.8 6.75 4 22.7 4 42.5C4 53.78 10.33 63.95 20.5 70.55L20.5 89.25L37.83 79.63C41.13 80.45 44.42 81 48 81C72.2 81 92 65.05 92 45.25C92 25.45 72.2 6.75 48 6.75ZM48 72.75C44.97 72.75 41.95 72.47 39.2 71.65L36.45 70.83L26 76.6L26 68.9L23.52 67.25C15.55 61.75 9.5 52.67 9.5 42.5C9.5 25.73 26.83 12.25 48 12.25C69.17 12.25 86.5 25.73 86.5 42.5C86.5 59.28 69.17 72.75 48 72.75Z"/>
  </symbol>
  <symbol id="icon-description" viewBox="0 0 96 96">
    <path fill="currentColor" d="M4 16.38L92 16.38L92 24.63L4 24.63ZM4 43.88L92 43.88L92 52.13L4 52.13ZM4 71.38L64.5 71.38L64.5 79.63L4 79.63Z"/>
  </symbol>
  <symbol id="icon-inbox" viewBox="0 0 96 96">
    <path fill="currentColor" d="M13.78 92C11.09 92 8.79 91.02 6.88 89.12C4.98 87.21 4 84.91 4 82.22L4 13.78C4 11.09 4.98 8.79 6.88 6.88C8.79 4.98 11.09 4 13.78 4L82.22 4C84.91 4 87.21 4.98 89.12 6.88C91.02 8.79 92 11.09 92 13.78L92 62.67L62.67 92L13.78 92ZM13.78 82.22L52.89 82.22L52.89 62.67C52.89 59.98 53.87 57.68 55.77 55.77C57.68 53.87 59.98 52.89 62.67 52.89L82.22 52.89L82.22 13.78L13.78 13.78L13.78 82.22ZM62.67 82.22L82.22 62.67L62.67 62.67L62.67 82.22Z"/>
  </symbol>
  <symbol id="icon-next" viewBox="0 0 96 96">
    <path fill="currentColor" d="M37 92L45.8 54.6L21.6 54.6L59 4L50.2 41.4L74.4 41.4L37 92Z"/>
  </symbol>
</defs>

<!-- ==================== STEP 14 — Item ==================== -->
<g id="step-14-item" transform="translate(100, 100)">
  <text font-family="Inter" font-size="20" font-weight="600" fill="#374151" letter-spacing="0" y="20">Step 14 — Item</text>

  <!-- ── Section: Stuff Item States ── -->
  <text font-family="Inter" font-size="14" font-weight="600" fill="#6B7280" letter-spacing="0" y="54">Stuff Item</text>

  <!-- Normal -->
  <text font-family="Inter" font-size="11" font-weight="400" fill="#9CA3AF" letter-spacing="0" y="76">Normal</text>
  <g id="item-stuff-normal" transform="translate(0, 84)">
    <rect width="550" height="48" fill="#FFFFFF"/>
    <line x1="0" y1="48" x2="550" y2="48" stroke="#E3E8EF" stroke-width="1"/>
    <!-- Checkbox unchecked (18×18 centered at row-center y=24) -->
    <rect x="16" y="15" width="18" height="18" rx="3" fill="#FFFFFF" stroke="#D1D5DB" stroke-width="1.5"/>
    <!-- Title: text-body-m 16px 400 #374151 -->
    <text x="46" y="24" dominant-baseline="central" font-family="Inter" font-size="16" font-weight="400" fill="#374151" letter-spacing="0">Buy milk from the store</text>
  </g>

  <!-- Hover -->
  <text font-family="Inter" font-size="11" font-weight="400" fill="#9CA3AF" letter-spacing="0" y="147">Hover</text>
  <g id="item-stuff-hover" transform="translate(0, 155)">
    <rect width="550" height="48" fill="#E5E7EB"/>
    <line x1="0" y1="48" x2="550" y2="48" stroke="#E3E8EF" stroke-width="1"/>
    <rect x="16" y="15" width="18" height="18" rx="3" fill="#FFFFFF" stroke="#D1D5DB" stroke-width="1.5"/>
    <text x="46" y="24" dominant-baseline="central" font-family="Inter" font-size="16" font-weight="400" fill="#374151" letter-spacing="0">Buy milk from the store</text>
    <!-- Action button ✕ (visible on hover): padding 4px 8px, bg #F3F4F6, radius 4, danger color -->
    <g transform="translate(510, 13)">
      <rect width="24" height="22" rx="4" fill="#F3F4F6"/>
      <text x="12" y="11" text-anchor="middle" dominant-baseline="central" font-family="Inter" font-size="12" font-weight="400" fill="#ef4444" letter-spacing="0">&#x2715;</text>
    </g>
  </g>

  <!-- Checked -->
  <text font-family="Inter" font-size="11" font-weight="400" fill="#9CA3AF" letter-spacing="0" y="218">Checked</text>
  <g id="item-stuff-checked" transform="translate(0, 226)" opacity="0.6">
    <rect width="550" height="48" fill="#FFFFFF"/>
    <line x1="0" y1="48" x2="550" y2="48" stroke="#E3E8EF" stroke-width="1"/>
    <!-- Checkbox checked: blue bg + white checkmark -->
    <rect x="16" y="15" width="18" height="18" rx="3" fill="#4185DE"/>
    <polyline points="22,24 25,27 31,21" fill="none" stroke="#FFFFFF" stroke-width="2" stroke-linecap="round" stroke-linejoin="round"/>
    <!-- Title: strikethrough, secondary color -->
    <text x="46" y="24" dominant-baseline="central" font-family="Inter" font-size="16" font-weight="400" fill="#6B7280" text-decoration="line-through" letter-spacing="0">Buy milk from the store</text>
  </g>

  <!-- Editing -->
  <text font-family="Inter" font-size="11" font-weight="400" fill="#9CA3AF" letter-spacing="0" y="289">Editing</text>
  <g id="item-stuff-editing" transform="translate(0, 297)">
    <rect width="550" height="48" fill="#FFFFFF"/>
    <line x1="0" y1="48" x2="550" y2="48" stroke="#E3E8EF" stroke-width="1"/>
    <rect x="16" y="15" width="18" height="18" rx="3" fill="#FFFFFF" stroke="#D1D5DB" stroke-width="1.5"/>
    <!-- Input text with blue underline (border-bottom: 1px solid #4185DE) -->
    <text x="46" y="24" dominant-baseline="central" font-family="Inter" font-size="16" font-weight="400" fill="#374151" letter-spacing="0">Buy milk from the store</text>
    <line x1="46" y1="34" x2="238" y2="34" stroke="#4185DE" stroke-width="1"/>
  </g>

  <!-- Loading -->
  <text font-family="Inter" font-size="11" font-weight="400" fill="#9CA3AF" letter-spacing="0" y="360">Loading</text>
  <g id="item-stuff-loading" transform="translate(0, 368)" opacity="0.7">
    <rect width="550" height="48" fill="#FFFFFF"/>
    <line x1="0" y1="48" x2="550" y2="48" stroke="#E3E8EF" stroke-width="1"/>
    <rect x="16" y="15" width="18" height="18" rx="3" fill="#FFFFFF" stroke="#D1D5DB" stroke-width="1.5"/>
    <text x="46" y="24" dominant-baseline="central" font-family="Inter" font-size="16" font-weight="400" fill="#374151" letter-spacing="0">Buy milk from the store</text>
    <!-- Spinner: 20×20 circle at center of item (275, 24) -->
    <circle cx="275" cy="24" r="9" fill="none" stroke="#E3E8EF" stroke-width="2"/>
    <path d="M275 15 A9 9 0 0 1 284 24" fill="none" stroke="#4185DE" stroke-width="2" stroke-linecap="round"/>
  </g>

  <!-- ── Section: Action Item ── -->
  <text font-family="Inter" font-size="14" font-weight="600" fill="#6B7280" letter-spacing="0" y="445">Action Item — with MetadataRow</text>

  <g id="item-action-metadata" transform="translate(0, 460)">
    <!-- Item with subtitle: padding 10px 16px 8px, height 68 -->
    <rect width="550" height="68" fill="#FFFFFF"/>
    <line x1="0" y1="68" x2="550" y2="68" stroke="#E3E8EF" stroke-width="1"/>
    <!-- Main row center at 10+12=22 -->
    <rect x="16" y="13" width="18" height="18" rx="3" fill="#FFFFFF" stroke="#D1D5DB" stroke-width="1.5"/>
    <text x="46" y="22" dominant-baseline="central" font-family="Inter" font-size="16" font-weight="400" fill="#374151" letter-spacing="0">Call dentist to schedule appointment</text>
    <!-- Subtitle row: y=10+24+6=40, x=16+30=46 (checkbox indent) -->
    <g transform="translate(46, 40)">
      <!-- CalendarIcon chip: 20×20 icon box, 12×12 visible, 4px padding -->
      <use href="#icon-calendar" x="4" y="4" width="12" height="12" style="color:#6B7280"/>
      <text x="24" y="10" dominant-baseline="central" font-family="Inter" font-size="14" font-weight="400" fill="#6B7280" letter-spacing="0">Mar 15</text>
      <!-- ProjectsIcon chip (gap 10px after prev chip ~66px wide → x=76) -->
      <use href="#icon-projects" x="80" y="4" width="12" height="12" style="color:#4185DE"/>
      <text x="100" y="10" dominant-baseline="central" font-family="Inter" font-size="14" font-weight="500" fill="#4185DE" letter-spacing="0">Health Checkups</text>
      <!-- Tags (right area) -->
      <g transform="translate(310, 0)">
        <rect x="0" y="0" width="62" height="20" rx="4" fill="#F3F4F6" stroke="#E3E8EF" stroke-width="1"/>
        <text x="7" y="10" dominant-baseline="central" font-family="Inter" font-size="14" font-weight="400" fill="#6B7280" letter-spacing="0">@errands</text>
      </g>
    </g>
  </g>

  <!-- ── Section: Project Item ── -->
  <text font-family="Inter" font-size="14" font-weight="600" fill="#6B7280" letter-spacing="0" y="557">Project Item — no checkbox, with MetadataRow</text>

  <g id="item-project-metadata" transform="translate(0, 572)">
    <rect width="550" height="68" fill="#FFFFFF"/>
    <line x1="0" y1="68" x2="550" y2="68" stroke="#E3E8EF" stroke-width="1"/>
    <!-- No checkbox. Title at x=16, row center at 22 -->
    <text x="16" y="22" dominant-baseline="central" font-family="Inter" font-size="16" font-weight="400" fill="#374151" letter-spacing="0">Launch marketing campaign</text>
    <!-- Subtitle: y=40, x=16 (no checkbox → padding-left: 0, item padding: 16) -->
    <g transform="translate(16, 40)">
      <!-- WarningIcon + "No next action" (warning #d97706) -->
      <use href="#icon-warning" x="4" y="4" width="12" height="12" style="color:#d97706"/>
      <text x="24" y="10" dominant-baseline="central" font-family="Inter" font-size="14" font-weight="400" fill="#d97706" letter-spacing="0">No next action</text>
      <!-- AttachmentIcon + "2" (tertiary, gap 10px, prev ~114px) -->
      <use href="#icon-attachment" x="128" y="4" width="12" height="12" style="color:#9CA3AF"/>
      <text x="148" y="10" dominant-baseline="central" font-family="Inter" font-size="14" font-weight="400" fill="#9CA3AF" letter-spacing="0">2</text>
      <!-- Tags -->
      <g transform="translate(310, 0)">
        <rect x="0" y="0" width="50" height="20" rx="4" fill="#F3F4F6" stroke="#E3E8EF" stroke-width="1"/>
        <text x="7" y="10" dominant-baseline="central" font-family="Inter" font-size="14" font-weight="400" fill="#6B7280" letter-spacing="0">@work</text>
      </g>
    </g>
  </g>

  <!-- ── Section: With ItemTypeIcon Prefix ── -->
  <text font-family="Inter" font-size="14" font-weight="600" fill="#6B7280" letter-spacing="0" y="669">With ItemTypeIcon Prefix</text>

  <!-- Stuff prefix (InboxIcon, color #6B7280) -->
  <text font-family="Inter" font-size="11" font-weight="400" fill="#9CA3AF" letter-spacing="0" y="691">Stuff (InboxIcon)</text>
  <g id="item-prefix-stuff" transform="translate(0, 699)">
    <rect width="550" height="48" fill="#FFFFFF"/>
    <line x1="0" y1="48" x2="550" y2="48" stroke="#E3E8EF" stroke-width="1"/>
    <rect x="16" y="15" width="18" height="18" rx="3" fill="#FFFFFF" stroke="#D1D5DB" stroke-width="1.5"/>
    <!-- Prefix: ItemTypeIcon 20×20, 2px padding = 16×16 visible, at x=46 (after checkbox+gap) -->
    <use href="#icon-inbox" x="48" y="14" width="16" height="16" style="color:#6B7280"/>
    <!-- Title at x=46+20+12=78 -->
    <text x="78" y="24" dominant-baseline="central" font-family="Inter" font-size="16" font-weight="400" fill="#374151" letter-spacing="0">Random idea to explore later</text>
    <!-- ✕ action button -->
    <g transform="translate(510, 13)">
      <rect width="24" height="22" rx="4" fill="#F3F4F6"/>
      <text x="12" y="11" text-anchor="middle" dominant-baseline="central" font-family="Inter" font-size="12" font-weight="400" fill="#ef4444" letter-spacing="0">&#x2715;</text>
    </g>
  </g>

  <!-- Action prefix (NextIcon, color #4185DE) -->
  <text font-family="Inter" font-size="11" font-weight="400" fill="#9CA3AF" letter-spacing="0" y="762">Action (NextIcon)</text>
  <g id="item-prefix-action" transform="translate(0, 770)">
    <rect width="550" height="68" fill="#FFFFFF"/>
    <line x1="0" y1="68" x2="550" y2="68" stroke="#E3E8EF" stroke-width="1"/>
    <rect x="16" y="13" width="18" height="18" rx="3" fill="#FFFFFF" stroke="#D1D5DB" stroke-width="1.5"/>
    <use href="#icon-next" x="48" y="12" width="16" height="16" style="color:#4185DE"/>
    <text x="78" y="22" dominant-baseline="central" font-family="Inter" font-size="16" font-weight="400" fill="#374151" letter-spacing="0">Follow up with John on proposal</text>
    <!-- Subtitle: y=40, x=16+30=46 (default checkbox indent) -->
    <g transform="translate(46, 40)">
      <use href="#icon-hourglass" x="4" y="4" width="12" height="12" style="color:#6B7280"/>
      <text x="24" y="10" dominant-baseline="central" font-family="Inter" font-size="14" font-weight="400" fill="#6B7280" letter-spacing="0">John</text>
      <use href="#icon-calendar" x="64" y="4" width="12" height="12" style="color:#6B7280"/>
      <text x="84" y="10" dominant-baseline="central" font-family="Inter" font-size="14" font-weight="400" fill="#6B7280" letter-spacing="0">Mar 20</text>
    </g>
  </g>

  <!-- Project prefix (ProjectsIcon, color #b45309) -->
  <text font-family="Inter" font-size="11" font-weight="400" fill="#9CA3AF" letter-spacing="0" y="853">Project (ProjectsIcon)</text>
  <g id="item-prefix-project" transform="translate(0, 861)">
    <rect width="550" height="68" fill="#FFFFFF"/>
    <line x1="0" y1="68" x2="550" y2="68" stroke="#E3E8EF" stroke-width="1"/>
    <!-- No checkbox. Prefix at x=16 -->
    <use href="#icon-projects" x="18" y="14" width="16" height="16" style="color:#b45309"/>
    <!-- Title at x=16+20+12=48 -->
    <text x="48" y="22" dominant-baseline="central" font-family="Inter" font-size="16" font-weight="400" fill="#374151" letter-spacing="0">Redesign company homepage</text>
    <!-- Subtitle: y=40, x=16+44=60 (no-checkbox with prefix padding) -->
    <g transform="translate(60, 40)">
      <use href="#icon-warning" x="4" y="4" width="12" height="12" style="color:#d97706"/>
      <text x="24" y="10" dominant-baseline="central" font-family="Inter" font-size="14" font-weight="400" fill="#d97706" letter-spacing="0">No next action</text>
    </g>
  </g>
</g>

<!-- ==================== STEP 15 — ItemList ==================== -->
<g id="step-15-item-list" transform="translate(750, 100)">
  <text font-family="Inter" font-size="20" font-weight="600" fill="#374151" letter-spacing="0" y="20">Step 15 — ItemList</text>
  <text font-family="Inter" font-size="14" font-weight="600" fill="#6B7280" letter-spacing="0" y="50">List with Various Item States</text>

  <!-- ItemList container -->
  <g transform="translate(0, 65)">

    <!-- Item 1: Normal stuff item (no metadata) -->
    <!-- item-wrapper adds border-left: 3px solid transparent to .item -->
    <g id="itemlist-normal" transform="translate(0, 0)">
      <rect x="0" y="0" width="3" height="48" fill="transparent"/>
      <rect x="3" y="0" width="547" height="48" fill="#FFFFFF"/>
      <line x1="3" y1="48" x2="550" y2="48" stroke="#E3E8EF" stroke-width="1"/>
      <!-- Checkbox at x=3(border)+16(padding)=19 -->
      <rect x="19" y="15" width="18" height="18" rx="3" fill="#FFFFFF" stroke="#D1D5DB" stroke-width="1.5"/>
      <!-- Title at x=19+18+12=49 -->
      <text x="49" y="24" dominant-baseline="central" font-family="Inter" font-size="16" font-weight="400" fill="#374151" letter-spacing="0">Review Q3 budget proposal</text>
    </g>

    <!-- Item 2: Active item (blue left border, bg #F3F4F6) -->
    <g id="itemlist-active" transform="translate(0, 48)">
      <rect x="0" y="0" width="3" height="68" fill="#4185DE"/>
      <rect x="3" y="0" width="547" height="68" fill="#F3F4F6"/>
      <line x1="3" y1="68" x2="550" y2="68" stroke="#E3E8EF" stroke-width="1"/>
      <rect x="19" y="13" width="18" height="18" rx="3" fill="#FFFFFF" stroke="#D1D5DB" stroke-width="1.5"/>
      <text x="49" y="22" dominant-baseline="central" font-family="Inter" font-size="16" font-weight="400" fill="#374151" letter-spacing="0">Call dentist to schedule appointment</text>
      <!-- Subtitle: y=40, x=3+16+30=49 -->
      <g transform="translate(49, 40)">
        <use href="#icon-calendar" x="4" y="4" width="12" height="12" style="color:#6B7280"/>
        <text x="24" y="10" dominant-baseline="central" font-family="Inter" font-size="14" font-weight="400" fill="#6B7280" letter-spacing="0">Mar 15</text>
        <g transform="translate(310, 0)">
          <rect x="0" y="0" width="62" height="20" rx="4" fill="#F3F4F6" stroke="#E3E8EF" stroke-width="1"/>
          <text x="7" y="10" dominant-baseline="central" font-family="Inter" font-size="14" font-weight="400" fill="#6B7280" letter-spacing="0">@errands</text>
        </g>
      </g>
    </g>

    <!-- Item 3: Overdue item (red left border, danger bg subtle) -->
    <g id="itemlist-overdue" transform="translate(0, 116)">
      <rect x="0" y="0" width="550" height="68" fill="#FFFFFF" fill-opacity="0"/>
      <rect x="0" y="0" width="3" height="68" fill="#ef4444"/>
      <rect x="3" y="0" width="547" height="68" fill="#FEE2E2" fill-opacity="0.35"/>
      <line x1="3" y1="68" x2="550" y2="68" stroke="#E3E8EF" stroke-width="1"/>
      <rect x="19" y="13" width="18" height="18" rx="3" fill="#FFFFFF" stroke="#D1D5DB" stroke-width="1.5"/>
      <text x="49" y="22" dominant-baseline="central" font-family="Inter" font-size="16" font-weight="400" fill="#374151" letter-spacing="0">Submit tax documents</text>
      <g transform="translate(49, 40)">
        <!-- Overdue: CalendarIcon in danger color -->
        <use href="#icon-calendar" x="4" y="4" width="12" height="12" style="color:#ef4444"/>
        <text x="24" y="10" dominant-baseline="central" font-family="Inter" font-size="14" font-weight="400" fill="#ef4444" letter-spacing="0">Overdue Mar 10</text>
        <g transform="translate(310, 0)">
          <rect x="0" y="0" width="58" height="20" rx="4" fill="#F3F4F6" stroke="#E3E8EF" stroke-width="1"/>
          <text x="7" y="10" dominant-baseline="central" font-family="Inter" font-size="14" font-weight="400" fill="#6B7280" letter-spacing="0">@finance</text>
        </g>
      </g>
    </g>

    <!-- Item 4: With all metadata icon types -->
    <g id="itemlist-all-metadata" transform="translate(0, 184)">
      <rect x="0" y="0" width="3" height="68" fill="transparent"/>
      <rect x="3" y="0" width="547" height="68" fill="#FFFFFF"/>
      <line x1="3" y1="68" x2="550" y2="68" stroke="#E3E8EF" stroke-width="1"/>
      <rect x="19" y="13" width="18" height="18" rx="3" fill="#FFFFFF" stroke="#D1D5DB" stroke-width="1.5"/>
      <text x="49" y="22" dominant-baseline="central" font-family="Inter" font-size="16" font-weight="400" fill="#374151" letter-spacing="0">Follow up with John on proposal</text>
      <g transform="translate(49, 40)">
        <!-- HourglassIcon + "John" (secondary) -->
        <use href="#icon-hourglass" x="4" y="4" width="12" height="12" style="color:#6B7280"/>
        <text x="24" y="10" dominant-baseline="central" font-family="Inter" font-size="14" font-weight="400" fill="#6B7280" letter-spacing="0">John</text>
        <!-- CalendarIcon + "Mar 20" (gap 10px) -->
        <use href="#icon-calendar" x="68" y="4" width="12" height="12" style="color:#6B7280"/>
        <text x="88" y="10" dominant-baseline="central" font-family="Inter" font-size="14" font-weight="400" fill="#6B7280" letter-spacing="0">Mar 20</text>
        <!-- ProjectsIcon + "Q3 Sales" (blue) -->
        <use href="#icon-projects" x="142" y="4" width="12" height="12" style="color:#4185DE"/>
        <text x="162" y="10" dominant-baseline="central" font-family="Inter" font-size="14" font-weight="500" fill="#4185DE" letter-spacing="0">Q3 Sales</text>
        <!-- AttachmentIcon + "2" (tertiary) -->
        <use href="#icon-attachment" x="228" y="4" width="12" height="12" style="color:#9CA3AF"/>
        <text x="248" y="10" dominant-baseline="central" font-family="Inter" font-size="14" font-weight="400" fill="#9CA3AF" letter-spacing="0">2</text>
        <!-- CommentIcon + "3" (tertiary) -->
        <use href="#icon-comment" x="268" y="4" width="12" height="12" style="color:#9CA3AF"/>
        <text x="288" y="10" dominant-baseline="central" font-family="Inter" font-size="14" font-weight="400" fill="#9CA3AF" letter-spacing="0">3</text>
        <!-- Tags -->
        <g transform="translate(320, 0)">
          <rect x="0" y="0" width="50" height="20" rx="4" fill="#F3F4F6" stroke="#E3E8EF" stroke-width="1"/>
          <text x="7" y="10" dominant-baseline="central" font-family="Inter" font-size="14" font-weight="400" fill="#6B7280" letter-spacing="0">@work</text>
        </g>
      </g>
    </g>

    <!-- Item 5: Checked/completed item -->
    <g id="itemlist-checked" transform="translate(0, 252)" opacity="0.6">
      <rect x="0" y="0" width="3" height="48" fill="transparent"/>
      <rect x="3" y="0" width="547" height="48" fill="#FFFFFF"/>
      <line x1="3" y1="48" x2="550" y2="48" stroke="#E3E8EF" stroke-width="1"/>
      <rect x="19" y="15" width="18" height="18" rx="3" fill="#4185DE"/>
      <polyline points="25,24 28,27 34,21" fill="none" stroke="#FFFFFF" stroke-width="2" stroke-linecap="round" stroke-linejoin="round"/>
      <text x="49" y="24" dominant-baseline="central" font-family="Inter" font-size="16" font-weight="400" fill="#6B7280" text-decoration="line-through" letter-spacing="0">Buy groceries for the week</text>
    </g>
  </g>

  <!-- ── Empty State ── -->
  <text font-family="Inter" font-size="14" font-weight="600" fill="#6B7280" letter-spacing="0" y="390">Empty State</text>
  <g transform="translate(0, 405)">
    <!-- Container: padding 48px 24px, centered, flex column -->
    <rect width="550" height="144" fill="#FFFFFF"/>
    <line x1="0" y1="144" x2="550" y2="144" stroke="#E3E8EF" stroke-width="1"/>
    <!-- Centered icon (48×48) -->
    <use href="#icon-inbox" x="251" y="24" width="48" height="48" style="color:#9CA3AF"/>
    <!-- Title: 16px semibold -->
    <text x="275" y="92" text-anchor="middle" font-family="Inter" font-size="16" font-weight="600" fill="#374151" letter-spacing="0">No items yet</text>
    <!-- Subtitle: 14px normal tertiary -->
    <text x="275" y="114" text-anchor="middle" font-family="Inter" font-size="14" font-weight="400" fill="#9CA3AF" letter-spacing="0">Items you add will appear here</text>
  </g>

  <!-- ── Load More ── -->
  <text font-family="Inter" font-size="14" font-weight="600" fill="#6B7280" letter-spacing="0" y="575">Load More</text>
  <g transform="translate(0, 590)">
    <rect width="550" height="60" fill="transparent"/>
    <!-- Centered Btn ghost sm: padding 6px 12px, font-size 14px, radius 6px -->
    <!-- bg #ecf3fc, color #356dc0, border 1px #c6daf6, weight 600 -->
    <g transform="translate(220, 14)">
      <rect width="110" height="32" rx="6" fill="#ecf3fc" stroke="#c6daf6" stroke-width="1"/>
      <text x="55" y="16" text-anchor="middle" dominant-baseline="central" font-family="Inter" font-size="14" font-weight="600" fill="#356dc0" letter-spacing="0">Load more</text>
    </g>
  </g>
</g>

<!-- ==================== STEP 16 — MetadataRow ==================== -->
<g id="step-16-metadata-row" transform="translate(100, 1229)">
  <text font-family="Inter" font-size="20" font-weight="600" fill="#374151" letter-spacing="0" y="20">Step 16 — MetadataRow</text>
  <text font-family="Inter" font-size="14" font-weight="600" fill="#6B7280" letter-spacing="0" y="50">All Metadata Indicator Types</text>

  <!-- Row 1: Warning (projects only) — #d97706 -->
  <g transform="translate(0, 70)">
    <text x="0" y="10" dominant-baseline="central" font-family="Inter" font-size="11" font-weight="400" fill="#9CA3AF" letter-spacing="0">Warning (projects)</text>
    <g transform="translate(150, 0)">
      <use href="#icon-warning" x="4" y="4" width="12" height="12" style="color:#d97706"/>
      <text x="24" y="10" dominant-baseline="central" font-family="Inter" font-size="14" font-weight="400" fill="#d97706" letter-spacing="0">No next action</text>
    </g>
  </g>

  <!-- Row 2: Recurrence — tertiary #9CA3AF -->
  <g transform="translate(0, 100)">
    <text x="0" y="10" dominant-baseline="central" font-family="Inter" font-size="11" font-weight="400" fill="#9CA3AF" letter-spacing="0">Recurrence</text>
    <g transform="translate(150, 0)">
      <use href="#icon-recurring" x="4" y="4" width="12" height="12" style="color:#9CA3AF"/>
      <text x="24" y="10" dominant-baseline="central" font-family="Inter" font-size="14" font-weight="400" fill="#9CA3AF" letter-spacing="0">Every week</text>
    </g>
  </g>

  <!-- Row 3: Waiting for — secondary #6B7280 -->
  <g transform="translate(0, 130)">
    <text x="0" y="10" dominant-baseline="central" font-family="Inter" font-size="11" font-weight="400" fill="#9CA3AF" letter-spacing="0">Waiting for</text>
    <g transform="translate(150, 0)">
      <use href="#icon-hourglass" x="4" y="4" width="12" height="12" style="color:#6B7280"/>
      <text x="24" y="10" dominant-baseline="central" font-family="Inter" font-size="14" font-weight="400" fill="#6B7280" letter-spacing="0">John</text>
    </g>
  </g>

  <!-- Row 4: Due date (default) — secondary #6B7280 -->
  <g transform="translate(0, 160)">
    <text x="0" y="10" dominant-baseline="central" font-family="Inter" font-size="11" font-weight="400" fill="#9CA3AF" letter-spacing="0">Due date (default)</text>
    <g transform="translate(150, 0)">
      <use href="#icon-calendar" x="4" y="4" width="12" height="12" style="color:#6B7280"/>
      <text x="24" y="10" dominant-baseline="central" font-family="Inter" font-size="14" font-weight="400" fill="#6B7280" letter-spacing="0">Mar 15</text>
    </g>
  </g>

  <!-- Row 5: Due date (overdue) — danger #ef4444 -->
  <g transform="translate(0, 190)">
    <text x="0" y="10" dominant-baseline="central" font-family="Inter" font-size="11" font-weight="400" fill="#9CA3AF" letter-spacing="0">Due date (overdue)</text>
    <g transform="translate(150, 0)">
      <use href="#icon-calendar" x="4" y="4" width="12" height="12" style="color:#ef4444"/>
      <text x="24" y="10" dominant-baseline="central" font-family="Inter" font-size="14" font-weight="400" fill="#ef4444" letter-spacing="0">Overdue Mar 10</text>
    </g>
  </g>

  <!-- Row 6: Scheduled date — #0c4a6e -->
  <g transform="translate(0, 220)">
    <text x="0" y="10" dominant-baseline="central" font-family="Inter" font-size="11" font-weight="400" fill="#9CA3AF" letter-spacing="0">Scheduled date</text>
    <g transform="translate(150, 0)">
      <use href="#icon-calendar" x="4" y="4" width="12" height="12" style="color:#0c4a6e"/>
      <text x="24" y="10" dominant-baseline="central" font-family="Inter" font-size="14" font-weight="400" fill="#0c4a6e" letter-spacing="0">Sched Mar 20</text>
    </g>
  </g>

  <!-- Row 7: Start date — tertiary #9CA3AF -->
  <g transform="translate(0, 250)">
    <text x="0" y="10" dominant-baseline="central" font-family="Inter" font-size="11" font-weight="400" fill="#9CA3AF" letter-spacing="0">Start date</text>
    <g transform="translate(150, 0)">
      <use href="#icon-calendar" x="4" y="4" width="12" height="12" style="color:#9CA3AF"/>
      <text x="24" y="10" dominant-baseline="central" font-family="Inter" font-size="14" font-weight="400" fill="#9CA3AF" letter-spacing="0">Starts Apr 1</text>
    </g>
  </g>

  <!-- Row 8: Project — action #4185DE, weight 500 -->
  <g transform="translate(0, 280)">
    <text x="0" y="10" dominant-baseline="central" font-family="Inter" font-size="11" font-weight="400" fill="#9CA3AF" letter-spacing="0">Project</text>
    <g transform="translate(150, 0)">
      <use href="#icon-projects" x="4" y="4" width="12" height="12" style="color:#4185DE"/>
      <text x="24" y="10" dominant-baseline="central" font-family="Inter" font-size="14" font-weight="500" fill="#4185DE" letter-spacing="0">Marketing Campaign</text>
    </g>
  </g>

  <!-- Row 9: Attachments — tertiary #9CA3AF -->
  <g transform="translate(0, 310)">
    <text x="0" y="10" dominant-baseline="central" font-family="Inter" font-size="11" font-weight="400" fill="#9CA3AF" letter-spacing="0">Attachments</text>
    <g transform="translate(150, 0)">
      <use href="#icon-attachment" x="4" y="4" width="12" height="12" style="color:#9CA3AF"/>
      <text x="24" y="10" dominant-baseline="central" font-family="Inter" font-size="14" font-weight="400" fill="#9CA3AF" letter-spacing="0">3</text>
    </g>
  </g>

  <!-- Row 10: Comments — tertiary #9CA3AF -->
  <g transform="translate(0, 340)">
    <text x="0" y="10" dominant-baseline="central" font-family="Inter" font-size="11" font-weight="400" fill="#9CA3AF" letter-spacing="0">Comments</text>
    <g transform="translate(150, 0)">
      <use href="#icon-comment" x="4" y="4" width="12" height="12" style="color:#9CA3AF"/>
      <text x="24" y="10" dominant-baseline="central" font-family="Inter" font-size="14" font-weight="400" fill="#9CA3AF" letter-spacing="0">5</text>
    </g>
  </g>

  <!-- Row 11: Description — tertiary, no text -->
  <g transform="translate(0, 370)">
    <text x="0" y="10" dominant-baseline="central" font-family="Inter" font-size="11" font-weight="400" fill="#9CA3AF" letter-spacing="0">Description</text>
    <g transform="translate(150, 0)">
      <use href="#icon-description" x="4" y="4" width="12" height="12" style="color:#9CA3AF"/>
    </g>
  </g>

  <!-- Row 12: Tags — tag chips -->
  <g transform="translate(0, 400)">
    <text x="0" y="10" dominant-baseline="central" font-family="Inter" font-size="11" font-weight="400" fill="#9CA3AF" letter-spacing="0">Tags</text>
    <g transform="translate(150, 0)">
      <!-- @home: padding 1px 6px, bg #F3F4F6, border 1px #E3E8EF, radius 4 -->
      <rect x="0" y="0" width="52" height="20" rx="4" fill="#F3F4F6" stroke="#E3E8EF" stroke-width="1"/>
      <text x="7" y="10" dominant-baseline="central" font-family="Inter" font-size="14" font-weight="400" fill="#6B7280" letter-spacing="0">@home</text>
      <!-- @calls (gap 4px) -->
      <rect x="56" y="0" width="48" height="20" rx="4" fill="#F3F4F6" stroke="#E3E8EF" stroke-width="1"/>
      <text x="63" y="10" dominant-baseline="central" font-family="Inter" font-size="14" font-weight="400" fill="#6B7280" letter-spacing="0">@calls</text>
      <!-- +3 overflow: transparent bg, tertiary color, padding 1px 2px -->
      <text x="112" y="10" dominant-baseline="central" font-family="Inter" font-size="14" font-weight="400" fill="#9CA3AF" letter-spacing="0">+3</text>
    </g>
  </g>

  <!-- ── Combined MetadataRow Example ── -->
  <text font-family="Inter" font-size="14" font-weight="600" fill="#6B7280" letter-spacing="0" y="450">Combined MetadataRow Example</text>

  <g transform="translate(0, 468)">
    <!-- Full MetadataRow: indicators gap 10px | tags gap 4px, margin-left auto -->
    <!-- Indicators -->
    <use href="#icon-recurring" x="4" y="4" width="12" height="12" style="color:#9CA3AF"/>
    <text x="24" y="10" dominant-baseline="central" font-family="Inter" font-size="14" font-weight="400" fill="#9CA3AF" letter-spacing="0">Every week</text>

    <use href="#icon-hourglass" x="104" y="4" width="12" height="12" style="color:#6B7280"/>
    <text x="124" y="10" dominant-baseline="central" font-family="Inter" font-size="14" font-weight="400" fill="#6B7280" letter-spacing="0">John</text>

    <use href="#icon-calendar" x="164" y="4" width="12" height="12" style="color:#6B7280"/>
    <text x="184" y="10" dominant-baseline="central" font-family="Inter" font-size="14" font-weight="400" fill="#6B7280" letter-spacing="0">Mar 15</text>

    <use href="#icon-projects" x="238" y="4" width="12" height="12" style="color:#4185DE"/>
    <text x="258" y="10" dominant-baseline="central" font-family="Inter" font-size="14" font-weight="500" fill="#4185DE" letter-spacing="0">Q3 Sales</text>

    <use href="#icon-attachment" x="324" y="4" width="12" height="12" style="color:#9CA3AF"/>
    <text x="344" y="10" dominant-baseline="central" font-family="Inter" font-size="14" font-weight="400" fill="#9CA3AF" letter-spacing="0">3</text>

    <use href="#icon-comment" x="364" y="4" width="12" height="12" style="color:#9CA3AF"/>
    <text x="384" y="10" dominant-baseline="central" font-family="Inter" font-size="14" font-weight="400" fill="#9CA3AF" letter-spacing="0">5</text>

    <use href="#icon-description" x="404" y="4" width="12" height="12" style="color:#9CA3AF"/>

    <!-- Tags (right-aligned area) -->
    <g transform="translate(440, 0)">
      <rect x="0" y="0" width="52" height="20" rx="4" fill="#F3F4F6" stroke="#E3E8EF" stroke-width="1"/>
      <text x="7" y="10" dominant-baseline="central" font-family="Inter" font-size="14" font-weight="400" fill="#6B7280" letter-spacing="0">@home</text>
      <rect x="56" y="0" width="48" height="20" rx="4" fill="#F3F4F6" stroke="#E3E8EF" stroke-width="1"/>
      <text x="63" y="10" dominant-baseline="central" font-family="Inter" font-size="14" font-weight="400" fill="#6B7280" letter-spacing="0">@calls</text>
      <text x="112" y="10" dominant-baseline="central" font-family="Inter" font-size="14" font-weight="400" fill="#9CA3AF" letter-spacing="0">+3</text>
    </g>
  </g>
</g>

</svg>