<svg width="64" height="64" viewBox="0 0 64 64" fill="none" xmlns="http://www.w3.org/2000/svg">
<path d="M12 21.5C12 20.375 13.2812 19.4375 14 19.4375H36.2812C37.0312 19.4375 38.3125 20.4375 38.3125 21.5V24.8125C38.3125 25.125 38.0312 26.0625 37.3125 26.0625H13C12.5625 26.0625 12 25.4875 12 24.8125V21.5Z" fill="#4185DE"/>
<path d="M12.0312 41.3438C12.0312 42.4688 13.3125 43.4062 14.0312 43.4062H36.3125C37.0625 43.4062 38.3438 42.4062 38.3438 41.3438V38.0312C38.3438 37.7188 38.0625 36.7812 37.3438 36.7812H13.0312C12.5938 36.7812 12.0312 37.3562 12.0312 38.0312V41.3438Z" fill="#4185DE"/>
<path d="M13 28.125H44.75C44.9375 28.125 45 28.0312 44.875 27.9062C44.75 27.7813 41.4688 24.5313 41.2812 24.3125C41.0938 24.0937 41 23.375 41.25 23.0938C41.5 22.8125 42.75 21.4688 43.1562 21.0313C43.5625 20.5937 44.75 20.4687 45.4688 21.0938C46.1875 21.7188 53.1875 28.75 54.0625 29.625C54.9375 30.5 55 31.8437 54.1562 32.7812C53.3125 33.7188 45.875 41.1875 45.2812 41.75C44.6875 42.3125 43.75 42.125 43.375 41.8125C43 41.5 41.6562 40.0937 41.375 39.75C41.0938 39.4062 40.9062 38.7187 41.375 38.25C41.8438 37.7812 44.5519 35 44.6875 34.875C44.8231 34.75 44.8438 34.6875 44.7188 34.6875H13C12.4688 34.6875 12 34.0313 12 33.5V29.25C12 28.7813 12.5312 28.125 13 28.125Z" fill="#4185DE"/>
</svg>
