<svg width="48" height="48" viewBox="0 0 48 48" fill="none" xmlns="http://www.w3.org/2000/svg">
<g clip-path="url(#clip0_59_240)">
<path d="M17 33C16.45 33 15.975 32.8083 15.575 32.425C15.1917 32.025 15 31.55 15 31V17C15 16.45 15.1917 15.9833 15.575 15.6C15.975 15.2 16.45 15 17 15H31C31.55 15 32.0167 15.2 32.4 15.6C32.8 15.9833 33 16.45 33 17V31C33 31.55 32.8 32.025 32.4 32.425C32.0167 32.8083 31.55 33 31 33H17ZM24 28C24.6333 28 25.2083 27.8167 25.725 27.45C26.2417 27.0833 26.6 26.6 26.8 26H31V17H17V26H21.2C21.4 26.6 21.7583 27.0833 22.275 27.45C22.7917 27.8167 23.3667 28 24 28Z" fill="#49454F"/>
</g>
<defs>
<clipPath id="clip0_59_240">
<rect x="4" y="4" width="40" height="40" rx="20" fill="white"/>
</clipPath>
</defs>
</svg>
