<?xml version="1.0" encoding="UTF-8" standalone="no"?>
<svg
   width="48"
   height="48"
   viewBox="0 0 48 48"
   fill="none"
   version="1.1"
   id="svg1"
   xmlns="http://www.w3.org/2000/svg"><path
     id="path1-7"
     d="m 33.221495,24.091883 -4.3,4.3 -1.4,-1.4 1.9,-1.9 h -5.799999 v -2 h 5.799999 l -1.9,-1.9 1.4,-1.4 z m -16.417624,9.980135 c -0.55,0 -1.017,-0.183 -1.4,-0.55 -0.383,-0.367 -0.575,-0.833 -0.575,-1.45 v -16 c 0,-0.617 0.192,-1.083 0.575,-1.45 0.383,-0.367 0.85,-0.55 1.4,-0.55 h 9 c 0.55,0 1.017,0.183 1.4,0.55 0.383,0.367 0.575,0.833 0.575,1.45 v 4 h -2 v -4 h -8.975 v 16 h 8.975 v -4 h 2 v 4 c 0,0.617 -0.192,1.083 -0.575,1.45 -0.383,0.367 -0.85,0.55 -1.4,0.55 z"
     style="fill:#000000" /><defs
     id="defs1"><clipPath
       id="clip0_59_240"><rect
         x="4"
         y="4"
         width="40"
         height="40"
         rx="20"
         fill="white"
         id="rect1" /></clipPath></defs></svg>
