<svg width="48" height="48" viewBox="0 0 48 48" fill="none" xmlns="http://www.w3.org/2000/svg">
<g clip-path="url(#clip0_59_276)">
<path d="M17 33C16.45 33 15.975 32.8083 15.575 32.425C15.1917 32.025 15 31.55 15 31V17C15 16.45 15.1917 15.9833 15.575 15.6C15.975 15.2 16.45 15 17 15H31C31.55 15 32.0167 15.2 32.4 15.6C32.8 15.9833 33 16.45 33 17V31C33 31.55 32.8 32.025 32.4 32.425C32.0167 32.8083 31.55 33 31 33H17ZM17 31H31V17H17V31ZM18 29H30L26.25 24L23.25 28L21 25L18 29ZM17 31V17V31Z" fill="#49454F"/>
</g>
<defs>
<clipPath id="clip0_59_276">
<rect x="4" y="4" width="40" height="40" rx="20" fill="white"/>
</clipPath>
</defs>
</svg>
