<?xml version="1.0" encoding="UTF-8" standalone="no"?>
<svg
   width="48"
   height="48"
   viewBox="0 0 48 48"
   fill="none"
   version="1.1"
   id="svg1"
   xmlns="http://www.w3.org/2000/svg">
  <defs
     id="defs1">
    <clipPath
       id="clip0_59_258">
      <rect
         x="4"
         y="4"
         width="40"
         height="40"
         rx="20"
         fill="white"
         id="rect1" />
    </clipPath>
  </defs>
  <path
     id="path1"
     style="font-weight:bold;font-size:12px;font-family:Arial;-inkscape-font-specification:'Arial Bold';fill:#2b0000;stroke-width:0.4869;paint-order:stroke fill markers"
     d="m 24.697307,28.987319 h -1.494141 c -0.0039,-0.203734 -0.0059,-0.327827 -0.0059,-0.372278 0,-0.459327 0.08008,-0.837161 0.240234,-1.133502 0.160156,-0.296339 0.480468,-0.629722 0.960937,-1.000147 0.480469,-0.370424 0.767579,-0.613054 0.861329,-0.727886 0.144531,-0.181507 0.216796,-0.381536 0.216796,-0.600088 0,-0.303749 -0.128906,-0.563046 -0.386718,-0.777892 -0.253907,-0.218552 -0.597657,-0.327826 -1.03125,-0.327826 -0.417969,0 -0.767578,0.112979 -1.048828,0.338938 -0.28125,0.225959 -0.47461,0.570455 -0.580079,1.033486 L 20.917969,25.24232 c 0.04297,-0.66306 0.339842,-1.226107 0.890625,-1.689138 0.554687,-0.463032 1.28125,-0.694547 2.179687,-0.694547 0.945313,0 1.697266,0.23522 2.25586,0.70566 0.558593,0.466735 0.83789,1.01126 0.83789,1.633574 0,0.344495 -0.103516,0.670469 -0.310547,0.977922 -0.203125,0.307453 -0.640625,0.726034 -1.3125,1.255742 -0.347656,0.274114 -0.564453,0.494517 -0.65039,0.661209 -0.08203,0.16669 -0.119141,0.464883 -0.111328,0.894577 z m -1.494141,2.100309 v -1.561342 h 1.646484 v 1.561342 z m -6.185715,2.925969 c -0.548628,0 -1.018253,-0.195304 -1.408978,-0.586038 -0.390725,-0.390718 -0.586034,-0.860345 -0.586034,-1.408974 v -13.9651 c 0,-0.548627 0.195304,-1.018252 0.586034,-1.408976 0.390725,-0.390724 0.860349,-0.586034 1.408978,-0.586034 h 0.997507 v -1.995017 h 1.995014 v 1.995017 h 7.980055 v -1.995017 h 1.995014 v 1.995017 h 0.997507 c 0.548629,0 1.018256,0.195304 1.408977,0.586034 0.390724,0.390724 0.586036,0.860349 0.586036,1.408976 v 13.9651 c 0,0.548629 -0.195304,1.018256 -0.586036,1.408974 -0.390721,0.390726 -0.86035,0.586038 -1.408977,0.586038 z m 0,-1.995012 H 30.982548 V 22.043516 H 17.017451 Z" />
</svg>
